{"glyphs":{"0":{"ha":995,"x_min":35,"x_max":961,"o":"m 89 232 q 62 290 89 232 q 35 486 35 347 q 89 740 35 625 q 251 925 144 855 q 498 995 358 995 q 745 925 638 995 q 906 740 852 855 q 961 486 961 625 q 906 232 961 347 q 745 47 852 117 q 498 -23 638 -23 q 251 47 358 -23 q 89 232 144 117 m 403 656 q 387 625 403 656 q 370 486 370 594 q 403 317 370 378 q 498 255 436 255 q 592 317 559 255 q 625 486 625 378 q 592 656 625 594 q 498 718 559 718 q 403 656 436 718 z "},"1":{"ha":694,"x_min":23,"x_max":602,"o":"m 23 781 q 52 822 23 808 l 243 926 q 292 954 279 947 q 322 966 304 961 q 359 972 340 972 l 556 972 q 588 958 574 972 q 602 926 602 944 l 602 46 q 588 14 602 28 q 556 0 574 0 l 324 0 q 292 14 306 0 q 278 46 278 28 l 278 694 l 174 623 q 127 602 145 602 q 98 625 111 602 l 32 758 q 23 781 23 777 z "},"2":{"ha":926,"x_min":69,"x_max":880,"o":"m 69 46 l 69 185 q 116 272 69 233 l 405 521 q 433 543 412 527 q 466 570 455 560 q 492 596 477 580 q 514 628 507 612 q 521 660 521 644 q 491 719 521 698 q 404 741 461 741 q 372 738 388 741 q 340 730 355 736 q 313 720 324 725 q 288 708 302 716 q 269 696 274 699 q 250 683 263 692 l 237 674 q 208 666 226 666 q 168 689 185 666 l 83 799 q 75 828 75 810 q 98 868 75 851 q 451 995 257 995 q 738 904 632 995 q 845 694 845 813 q 841 642 845 667 q 828 595 838 618 q 813 558 818 572 q 788 521 807 544 q 764 491 770 499 q 734 458 758 484 q 706 428 711 433 l 509 243 l 833 243 q 866 229 852 243 q 880 197 880 215 l 880 46 q 866 14 880 28 q 833 0 852 0 l 116 0 q 83 14 97 0 q 69 46 69 28 z "},"3":{"ha":891,"x_min":35,"x_max":856,"o":"m 35 104 q 43 133 35 122 l 139 260 q 179 284 156 284 q 208 275 197 284 q 405 220 294 220 q 521 301 521 220 q 490 359 521 337 q 405 382 459 382 l 301 382 q 269 396 282 382 q 255 428 255 410 l 255 544 q 269 576 255 563 q 301 590 282 590 l 405 590 q 475 616 453 590 q 498 683 498 642 q 468 741 498 719 q 394 764 438 764 q 220 703 308 764 q 197 694 208 694 q 156 718 177 694 l 75 804 q 64 833 64 816 q 87 874 64 856 q 163 928 127 906 q 271 973 198 950 q 428 995 345 995 q 716 907 611 995 q 822 694 822 819 q 721 494 822 571 q 856 266 856 419 q 738 54 856 132 q 428 -23 620 -23 q 255 -6 332 -23 q 144 26 178 10 q 64 69 109 42 q 35 104 35 86 z "},"4":{"ha":926,"x_min":35,"x_max":903,"o":"m 35 185 l 35 330 q 37 343 35 336 q 42 356 39 351 q 51 370 45 361 q 60 384 57 380 q 71 398 63 388 q 81 411 80 409 l 451 926 q 484 961 469 950 q 527 972 500 972 l 752 972 q 785 958 771 972 q 799 926 799 944 l 799 347 l 856 347 q 889 333 875 347 q 903 301 903 319 l 903 185 q 889 153 903 167 q 856 139 875 139 l 799 139 l 799 46 q 785 14 799 28 q 752 0 771 0 l 521 0 q 488 14 502 0 q 475 46 475 28 l 475 139 l 81 139 q 49 153 63 139 q 35 185 35 167 m 278 347 l 475 347 l 475 625 l 278 347 z "},"5":{"ha":903,"x_min":46,"x_max":868,"o":"m 46 104 q 54 133 46 122 l 150 260 q 191 284 168 284 q 220 275 208 284 q 416 220 306 220 q 532 301 532 220 q 502 359 532 337 q 417 382 471 382 q 341 367 374 382 q 328 359 340 366 q 307 350 316 353 q 289 347 299 347 q 267 351 280 347 q 244 358 253 354 l 235 361 l 116 403 q 75 454 75 416 l 82 515 l 124 932 q 139 959 126 947 q 174 972 152 972 l 752 972 q 785 958 771 972 q 799 926 799 944 l 799 775 q 785 743 799 757 q 752 729 771 729 l 376 729 l 361 586 q 532 625 432 625 q 774 545 679 625 q 868 336 868 464 q 752 67 868 157 q 440 -23 637 -23 q 267 -6 344 -23 q 155 26 190 10 q 75 69 120 42 q 46 104 46 86 z "},"6":{"ha":938,"x_min":46,"x_max":903,"o":"m 46 324 l 46 579 q 163 883 46 771 q 486 995 279 995 q 799 909 667 995 q 822 874 822 894 q 814 845 822 859 l 747 735 q 706 712 733 712 q 677 720 689 712 q 521 764 610 764 q 407 727 456 764 q 359 625 359 690 l 359 563 q 590 637 451 637 q 810 561 718 637 q 903 347 903 486 q 785 73 903 170 q 475 -23 668 -23 q 167 76 287 -23 q 46 324 46 175 m 370 324 q 400 251 370 281 q 475 220 429 220 q 549 251 520 220 q 579 324 579 281 q 549 398 579 367 q 475 428 520 428 q 398 398 425 428 q 370 324 370 368 z "},"7":{"ha":833,"x_min":46,"x_max":799,"o":"m 46 775 l 46 926 q 60 958 46 944 q 93 972 74 972 l 752 972 q 785 958 771 972 q 799 926 799 944 l 799 775 q 752 654 799 755 l 494 46 q 436 0 480 0 l 190 0 q 144 29 144 0 q 149 46 144 37 l 451 729 l 93 729 q 60 743 74 729 q 46 775 46 757 z "},"8":{"ha":926,"x_min":35,"x_max":891,"o":"m 35 255 q 208 501 35 428 q 69 718 69 572 q 179 916 69 837 q 463 995 288 995 q 747 916 638 995 q 856 718 856 837 q 718 501 856 572 q 891 255 891 428 q 774 49 891 122 q 463 -23 656 -23 q 152 49 270 -23 q 35 255 35 122 m 359 289 q 388 215 359 245 q 463 185 418 185 q 538 215 508 185 q 567 289 567 245 q 541 372 567 338 q 463 405 515 405 q 385 372 411 405 q 359 289 359 338 m 382 694 q 403 619 382 647 q 463 590 425 590 q 523 619 501 590 q 544 694 544 647 q 521 770 544 741 q 463 799 499 799 q 405 770 427 799 q 382 694 382 741 z "},"9":{"ha":938,"x_min":35,"x_max":891,"o":"m 891 648 l 891 394 q 775 89 891 201 q 451 -23 659 -23 q 139 64 271 -23 q 116 98 116 79 q 124 127 116 113 l 191 237 q 231 260 205 260 q 260 252 249 260 q 417 208 328 208 q 530 245 481 208 q 579 347 579 282 l 579 410 q 347 336 486 336 q 127 411 220 336 q 35 625 35 486 q 152 899 35 802 q 463 995 270 995 q 771 896 650 995 q 891 648 891 797 m 567 648 q 538 722 567 691 q 463 752 508 752 q 388 722 418 752 q 359 648 359 691 q 388 575 359 605 q 463 544 418 544 q 540 574 513 544 q 567 648 567 604 z "}," ":{"ha":417,"x_min":0,"x_max":0,"o":""},"!":{"ha":463,"x_min":72,"x_max":391,"o":"m 72 926 q 84 959 72 946 q 116 972 97 972 l 347 972 q 378 959 366 972 q 391 926 391 946 l 361 359 q 348 326 361 339 q 316 313 334 313 l 147 313 q 115 326 128 313 q 102 359 102 339 l 72 926 m 93 35 l 93 197 q 103 221 93 211 q 127 231 113 231 l 336 231 q 360 221 350 231 q 370 197 370 211 l 370 35 q 360 10 370 21 q 336 0 350 0 l 127 0 q 103 10 113 0 q 93 35 93 21 z "},"\"":{"ha":671,"x_min":51,"x_max":620,"o":"m 51 938 q 61 962 51 951 q 86 972 72 972 l 273 972 q 297 962 287 972 q 308 938 308 951 l 259 590 q 249 566 259 576 q 225 556 238 556 l 134 556 q 110 566 120 556 q 100 590 100 576 l 51 938 m 363 938 q 374 962 363 951 q 398 972 384 972 l 586 972 q 610 962 600 972 q 620 938 620 951 l 572 590 q 561 566 572 576 q 537 556 551 556 l 447 556 q 422 566 433 556 q 412 590 412 576 l 363 938 z "},"#":{"ha":1111,"x_min":35,"x_max":1076,"o":"m 35 243 l 35 382 q 45 406 35 396 q 69 417 56 417 l 208 417 l 243 556 l 139 556 q 115 566 125 556 q 104 590 104 576 l 104 729 q 115 753 104 743 q 139 764 125 764 l 295 764 l 338 938 q 382 972 347 972 l 556 972 q 575 964 567 972 q 582 946 582 956 q 581 938 582 940 l 538 764 l 712 764 l 755 938 q 799 972 764 972 l 972 972 q 991 964 984 972 q 999 946 999 956 q 998 938 999 940 l 955 764 l 1042 764 q 1066 753 1056 764 q 1076 729 1076 743 l 1076 590 q 1066 566 1076 576 q 1042 556 1056 556 l 903 556 l 868 417 l 972 417 q 997 406 986 417 q 1007 382 1007 396 l 1007 243 q 997 219 1007 229 q 972 208 986 208 l 816 208 l 773 35 q 729 0 764 0 l 556 0 q 536 8 544 0 q 529 27 529 16 q 530 35 529 32 l 573 208 l 399 208 l 356 35 q 313 0 347 0 l 139 0 q 120 8 127 0 q 112 27 112 16 q 113 35 112 32 l 156 208 l 69 208 q 45 219 56 208 q 35 243 35 229 m 451 417 l 625 417 l 660 556 l 486 556 l 451 417 z "},"$":{"ha":880,"x_min":46,"x_max":845,"o":"m 46 98 q 56 127 46 111 l 145 284 q 179 307 157 307 q 214 295 196 307 q 275 256 256 267 q 328 233 294 245 q 394 220 362 220 q 486 266 486 220 q 484 279 486 273 q 479 291 483 285 q 471 300 475 296 q 460 307 468 303 q 450 313 453 311 q 438 319 447 315 q 428 324 429 323 q 379 348 416 331 q 310 381 343 365 q 255 411 278 397 q 187 454 214 434 q 126 507 160 473 q 75 585 93 541 q 58 683 58 630 q 130 876 58 803 q 318 977 203 948 l 318 1076 q 329 1101 318 1090 q 353 1111 339 1111 l 527 1111 q 551 1101 541 1111 q 561 1076 561 1090 l 561 988 q 781 909 675 970 q 810 874 810 892 q 801 845 810 861 l 729 712 q 694 689 716 689 q 666 694 677 689 q 498 752 567 752 q 417 706 417 752 q 418 697 417 701 q 420 690 419 693 q 424 683 421 688 q 429 677 427 679 q 436 671 432 675 q 443 666 441 668 q 451 661 446 664 q 459 657 457 657 q 467 653 461 656 q 475 648 473 649 l 613 579 q 675 547 655 558 q 733 508 694 536 q 792 451 772 479 q 828 378 811 424 q 845 278 845 332 q 767 87 845 157 q 561 -9 690 16 l 561 -104 q 551 -128 561 -118 q 527 -139 541 -139 l 353 -139 q 329 -128 339 -139 q 318 -104 318 -118 l 318 -19 q 75 64 181 -1 q 46 98 46 81 z "},"%":{"ha":1273,"x_min":35,"x_max":1238,"o":"m 108 520 q 71 560 108 520 q 35 718 35 600 q 108 916 35 836 q 295 995 181 995 q 483 916 410 995 q 556 718 556 836 q 483 520 556 600 q 295 440 410 440 q 108 520 181 440 m 244 792 q 235 777 244 792 q 226 718 226 763 q 244 643 226 672 q 295 613 263 613 q 346 643 328 613 q 365 718 365 672 q 346 792 365 763 q 295 822 328 822 q 244 792 263 822 m 791 57 q 754 97 791 57 q 718 255 718 137 q 791 453 718 373 q 978 532 863 532 q 1166 453 1093 532 q 1238 255 1238 373 q 1166 57 1238 137 q 978 -23 1093 -23 q 791 57 863 -23 m 927 329 q 918 315 927 329 q 909 255 909 300 q 927 180 909 209 q 978 150 946 150 q 1029 180 1010 150 q 1047 255 1047 209 q 1029 329 1047 300 q 978 359 1010 359 q 927 329 946 359 m 156 15 q 159 24 156 20 q 164 32 162 29 l 168 35 l 897 938 q 953 972 925 972 l 1091 972 q 1117 957 1117 972 q 1114 948 1117 953 q 1109 940 1111 943 l 1105 938 l 376 35 q 321 0 348 0 l 182 0 q 156 15 156 0 z "},"&":{"ha":1007,"x_min":46,"x_max":961,"o":"m 46 243 q 242 523 46 426 q 174 706 174 606 q 263 918 174 841 q 475 995 352 995 q 680 919 596 995 q 764 706 764 843 q 612 465 764 568 l 716 374 l 779 458 q 809 475 788 475 q 826 470 821 475 l 941 402 q 957 372 957 392 q 953 353 957 361 q 872 240 917 299 l 947 174 q 961 147 961 162 q 949 122 961 139 l 856 5 q 833 -6 850 -6 q 804 3 816 -6 l 720 80 q 405 -23 573 -23 q 231 6 311 -23 q 99 97 152 35 q 46 243 46 159 m 347 278 q 376 219 347 242 q 451 197 404 197 q 554 230 497 197 l 405 365 q 347 278 347 331 m 405 706 q 463 595 406 645 q 544 706 544 644 q 526 773 544 748 q 475 799 508 799 q 423 773 441 799 q 405 706 405 748 z "},"'":{"ha":370,"x_min":51,"x_max":319,"o":"m 51 938 q 61 962 51 951 q 86 972 72 972 l 285 972 q 309 962 299 972 q 319 938 319 951 l 271 590 q 260 566 271 576 q 236 556 250 556 l 134 556 q 110 566 120 556 q 100 590 100 576 l 51 938 z "},"(":{"ha":556,"x_min":35,"x_max":519,"o":"m 64 203 q 49 253 64 203 q 35 417 35 303 q 64 630 35 530 q 144 803 94 730 q 249 927 194 875 q 365 1014 303 978 q 385 1021 378 1021 q 413 1008 403 1021 l 512 882 q 519 860 519 872 q 506 833 519 844 q 378 667 433 775 q 324 417 324 558 q 378 167 324 275 q 506 0 433 58 q 519 -27 519 -10 q 512 -49 519 -38 l 413 -175 q 385 -187 403 -187 q 365 -181 378 -187 q 249 -93 303 -145 q 144 31 194 -42 q 64 203 94 103 z "},")":{"ha":556,"x_min":37,"x_max":521,"o":"m 491 630 q 506 580 491 630 q 521 417 521 530 q 491 203 521 303 q 411 31 462 103 q 307 -93 361 -42 q 191 -181 252 -145 q 170 -187 177 -187 q 142 -175 153 -187 l 44 -49 q 37 -27 37 -38 q 50 0 37 -10 q 177 167 123 58 q 231 417 231 275 q 177 667 231 558 q 50 833 123 775 q 37 860 37 844 q 44 882 37 872 l 142 1008 q 170 1021 153 1021 q 191 1014 177 1021 q 307 927 252 978 q 411 803 361 875 q 491 630 462 730 z "},"*":{"ha":764,"x_min":57,"x_max":707,"o":"m 57 660 q 59 675 57 666 l 112 839 q 134 860 118 860 q 154 854 142 860 l 307 764 l 269 938 q 267 949 267 943 q 295 972 267 972 l 469 972 q 497 949 497 972 l 495 938 l 457 764 l 610 854 q 630 860 622 860 q 652 839 646 860 l 705 675 q 707 660 707 666 q 681 639 707 644 l 503 620 l 637 502 q 648 480 648 491 q 635 458 648 469 l 494 356 q 475 350 486 350 q 453 369 463 350 l 382 532 l 311 369 q 289 350 301 350 q 270 356 279 350 l 128 458 q 116 480 116 469 q 127 502 116 491 l 260 620 l 83 639 q 57 660 57 644 z "},"+":{"ha":741,"x_min":58,"x_max":683,"o":"m 58 347 l 58 486 q 68 510 58 500 q 93 521 79 521 l 231 521 l 231 660 q 242 684 231 674 q 266 694 252 694 l 475 694 q 499 684 488 694 q 509 660 509 674 l 509 521 l 648 521 q 672 510 662 521 q 683 486 683 500 l 683 347 q 672 323 683 333 q 648 313 662 313 l 509 313 l 509 174 q 499 149 509 160 q 475 139 488 139 l 266 139 q 242 149 252 139 q 231 174 231 160 l 231 313 l 93 313 q 68 323 79 313 q 58 347 58 333 z "},",":{"ha":417,"x_min":51,"x_max":347,"o":"m 51 -145 q 71 -125 51 -130 q 174 0 166 -106 l 104 0 q 80 10 90 0 q 69 35 69 21 l 69 197 q 80 221 69 211 q 104 231 90 231 l 313 231 q 337 221 326 231 q 347 197 347 211 l 347 35 q 270 -161 347 -90 q 93 -231 192 -231 q 64 -208 68 -231 l 52 -152 q 51 -145 51 -148 z "},"-":{"ha":741,"x_min":58,"x_max":683,"o":"m 58 347 l 58 486 q 68 510 58 500 q 93 521 79 521 l 648 521 q 672 510 662 521 q 683 486 683 500 l 683 347 q 672 323 683 333 q 648 313 662 313 l 93 313 q 68 323 79 313 q 58 347 58 333 z "},".":{"ha":417,"x_min":69,"x_max":347,"o":"m 69 35 l 69 197 q 80 221 69 211 q 104 231 90 231 l 313 231 q 337 221 326 231 q 347 197 347 211 l 347 35 q 337 10 347 21 q 313 0 326 0 l 104 0 q 80 10 90 0 q 69 35 69 21 z "},"/":{"ha":694,"x_min":43,"x_max":652,"o":"m 43 14 l 49 35 l 403 938 q 454 972 416 972 l 626 972 q 652 958 652 972 l 646 938 l 292 35 q 241 0 279 0 l 68 0 q 43 14 43 0 z "},":":{"ha":417,"x_min":69,"x_max":347,"o":"m 69 498 l 69 660 q 80 684 69 674 q 104 694 90 694 l 313 694 q 337 684 326 694 q 347 660 347 674 l 347 498 q 337 473 347 484 q 313 463 326 463 l 104 463 q 80 473 90 463 q 69 498 69 484 m 69 35 l 69 197 q 80 221 69 211 q 104 231 90 231 l 313 231 q 337 221 326 231 q 347 197 347 211 l 347 35 q 337 10 347 21 q 313 0 326 0 l 104 0 q 80 10 90 0 q 69 35 69 21 z "},";":{"ha":417,"x_min":51,"x_max":347,"o":"m 69 498 l 69 660 q 80 684 69 674 q 104 694 90 694 l 313 694 q 337 684 326 694 q 347 660 347 674 l 347 498 q 337 473 347 484 q 313 463 326 463 l 104 463 q 80 473 90 463 q 69 498 69 484 m 51 -145 q 71 -125 51 -130 q 174 0 166 -106 l 104 0 q 80 10 90 0 q 69 35 69 21 l 69 197 q 80 221 69 211 q 104 231 90 231 l 313 231 q 337 221 326 231 q 347 197 347 211 l 347 35 q 270 -161 347 -90 q 93 -231 192 -231 q 64 -208 68 -231 l 52 -152 q 51 -145 51 -148 z "},"<":{"ha":660,"x_min":23,"x_max":625,"o":"m 23 304 l 23 417 l 23 529 q 58 564 23 549 l 590 784 q 611 789 602 789 q 625 764 625 789 l 625 595 q 590 544 625 557 l 231 417 l 590 289 q 625 238 625 277 l 625 69 q 611 44 625 44 l 590 50 l 58 270 q 23 304 23 285 z "},"=":{"ha":741,"x_min":58,"x_max":683,"o":"m 58 174 l 58 313 q 68 337 58 326 q 93 347 79 347 l 648 347 q 672 337 662 347 q 683 313 683 326 l 683 174 q 672 149 683 160 q 648 139 662 139 l 93 139 q 68 149 79 139 q 58 174 58 160 m 58 521 l 58 660 q 68 684 58 674 q 93 694 79 694 l 648 694 q 672 684 662 694 q 683 660 683 674 l 683 521 q 672 497 683 507 q 648 486 662 486 l 93 486 q 68 497 79 486 q 58 521 58 507 z "},">":{"ha":660,"x_min":35,"x_max":637,"o":"m 637 529 l 637 417 l 637 304 q 602 270 637 285 l 69 50 q 49 44 58 44 q 35 69 35 44 l 35 238 q 69 289 35 277 l 428 417 l 69 544 q 35 595 35 557 l 35 764 q 49 789 35 789 l 69 784 l 602 564 q 637 529 637 549 z "},"?":{"ha":799,"x_min":25,"x_max":752,"o":"m 35 810 q 25 839 25 823 q 46 874 25 855 q 192 958 101 921 q 394 995 284 995 q 651 911 550 995 q 752 694 752 826 q 733 600 752 645 q 688 525 713 554 q 628 472 662 497 q 575 436 594 447 q 538 419 556 426 l 535 359 q 521 326 535 340 q 488 313 507 313 l 322 313 q 289 326 303 313 q 275 359 275 340 l 267 503 q 295 529 267 521 q 398 579 356 546 q 440 648 440 611 q 418 698 440 679 q 359 718 396 718 q 200 653 285 718 q 174 642 185 642 q 137 663 152 642 l 35 810 m 266 35 l 266 197 q 277 221 266 211 q 301 231 287 231 l 509 231 q 534 221 523 231 q 544 197 544 211 l 544 35 q 534 10 544 21 q 509 0 523 0 l 301 0 q 277 10 287 0 q 266 35 266 21 z "},"@":{"ha":1273,"x_min":35,"x_max":1238,"o":"m 113 94 q 74 163 113 94 q 35 394 35 231 q 113 693 35 556 q 330 913 191 831 q 637 995 469 995 q 943 913 804 995 q 1160 693 1082 831 q 1238 394 1238 556 q 1223 289 1238 338 q 1174 197 1207 240 q 1082 131 1141 155 q 942 106 1022 106 q 818 135 875 106 q 730 216 762 163 q 558 106 671 106 q 363 189 438 106 q 289 394 289 272 q 363 598 289 515 q 558 681 438 681 q 706 608 650 681 l 706 637 q 716 661 706 650 q 741 671 727 671 l 900 671 q 925 661 914 671 q 935 637 935 650 l 935 347 q 960 262 935 293 q 1030 231 985 231 q 1106 274 1078 231 q 1134 394 1134 316 q 1071 644 1134 527 q 891 832 1007 760 q 637 903 775 903 q 382 832 498 903 q 203 644 266 760 q 139 394 139 527 q 203 144 139 260 q 382 -45 266 27 q 637 -116 498 -116 q 845 -87 753 -116 q 850 -86 847 -87 q 856 -84 853 -84 q 862 -83 859 -83 q 884 -104 876 -83 l 894 -130 q 897 -145 897 -140 q 876 -168 897 -162 q 853 -175 874 -169 q 823 -185 832 -182 q 791 -193 815 -187 q 747 -201 766 -199 q 698 -206 728 -204 q 637 -208 669 -208 q 330 -126 469 -208 q 113 94 191 -44 m 573 476 q 561 461 573 476 q 549 394 549 447 q 573 311 549 340 q 632 282 597 282 q 697 328 682 282 l 697 347 l 697 461 q 632 505 679 505 q 573 476 597 505 z "},"A":{"ha":1134,"x_min":23,"x_max":1111,"o":"m 23 29 q 29 46 23 37 l 365 926 q 383 957 368 941 q 417 972 397 972 l 567 972 l 718 972 q 752 957 737 972 q 770 926 766 941 l 1105 46 q 1111 29 1111 37 q 1065 0 1111 0 l 816 0 q 758 46 772 0 l 729 139 l 405 139 l 376 46 q 318 0 362 0 l 69 0 q 23 29 23 0 m 470 347 l 664 347 l 579 625 l 573 660 l 567 660 l 561 660 l 556 625 l 470 347 z "},"B":{"ha":1019,"x_min":69,"x_max":984,"o":"m 69 46 l 69 926 q 83 958 69 944 q 116 972 97 972 l 556 972 q 841 900 744 972 q 938 706 938 828 q 807 502 938 567 q 984 255 984 434 q 953 135 984 186 q 869 56 921 84 q 755 13 816 27 q 625 0 693 0 l 116 0 q 83 14 97 0 q 69 46 69 28 m 394 208 l 521 208 q 602 235 567 208 q 637 301 637 262 q 607 375 637 345 q 521 405 578 405 l 394 405 l 394 208 m 394 579 l 521 579 q 579 607 557 579 q 602 671 602 635 q 575 735 602 706 q 509 764 549 764 l 394 764 l 394 579 z "},"C":{"ha":972,"x_min":35,"x_max":938,"o":"m 72 290 q 53 336 72 290 q 35 486 35 382 q 72 682 35 590 q 177 844 109 774 q 348 955 244 914 q 579 995 453 995 q 909 909 759 995 q 938 874 938 891 q 928 845 938 861 l 845 694 q 810 671 832 671 q 781 677 793 671 q 764 685 780 677 q 731 700 748 693 q 686 712 715 706 q 625 718 656 718 q 451 655 515 718 q 388 486 388 593 q 451 317 388 380 q 625 255 515 255 q 686 260 656 255 q 731 273 715 266 q 764 287 748 279 q 781 295 780 295 q 810 301 793 301 q 845 278 832 301 l 928 127 q 938 98 938 111 q 909 64 938 81 q 579 -23 759 -23 q 348 17 453 -23 q 177 128 244 58 q 72 290 109 198 z "},"D":{"ha":1042,"x_min":69,"x_max":1007,"o":"m 69 46 l 69 926 q 83 958 69 944 q 116 972 97 972 l 463 972 q 865 836 722 972 q 1007 486 1007 700 q 865 136 1007 272 q 463 0 722 0 l 116 0 q 83 14 97 0 q 69 46 69 28 m 394 243 l 451 243 q 612 312 552 243 q 671 486 671 381 q 612 660 671 591 q 451 729 552 729 l 394 729 l 394 243 z "},"E":{"ha":914,"x_min":69,"x_max":868,"o":"m 69 46 l 69 926 q 83 958 69 944 q 116 972 97 972 l 810 972 q 843 958 829 972 q 856 926 856 944 l 856 775 q 843 743 856 757 q 810 729 829 729 l 394 729 l 394 590 l 764 590 q 796 576 782 590 q 810 544 810 563 l 810 405 q 796 373 810 387 q 764 359 782 359 l 394 359 l 394 243 l 822 243 q 854 229 840 243 q 868 197 868 215 l 868 46 q 854 14 868 28 q 822 0 840 0 l 116 0 q 83 14 97 0 q 69 46 69 28 z "},"F":{"ha":856,"x_min":69,"x_max":833,"o":"m 69 46 l 69 926 q 83 958 69 944 q 116 972 97 972 l 787 972 q 819 958 806 972 q 833 926 833 944 l 833 775 q 819 743 833 757 q 787 729 806 729 l 405 729 l 405 544 l 741 544 q 773 530 759 544 q 787 498 787 516 l 787 359 q 773 326 787 340 q 741 313 759 313 l 405 313 l 405 46 q 391 14 405 28 q 359 0 377 0 l 116 0 q 83 14 97 0 q 69 46 69 28 z "},"G":{"ha":1065,"x_min":35,"x_max":1019,"o":"m 72 290 q 53 336 72 290 q 35 486 35 382 q 72 682 35 590 q 177 844 109 774 q 348 955 244 914 q 579 995 453 995 q 697 987 639 995 q 792 968 755 978 q 863 943 829 957 q 910 921 898 928 q 932 909 922 914 q 961 874 961 891 q 951 845 961 861 l 868 694 q 833 671 855 671 q 804 677 816 671 q 625 718 723 718 q 448 655 515 718 q 382 486 382 591 q 447 290 382 360 q 625 220 513 220 q 718 234 672 220 l 718 336 l 602 336 q 569 350 583 336 q 556 382 556 363 l 556 498 q 569 530 556 516 q 602 544 583 544 l 949 544 q 1003 530 988 544 q 1019 475 1019 515 l 1019 174 q 983 109 1019 144 q 891 46 948 75 q 750 -3 833 16 q 579 -23 667 -23 q 348 17 453 -23 q 177 128 244 58 q 72 290 109 198 z "},"H":{"ha":1065,"x_min":69,"x_max":995,"o":"m 69 46 l 69 926 q 83 958 69 944 q 116 972 97 972 l 347 972 q 380 958 366 972 q 394 926 394 944 l 394 590 l 671 590 l 671 926 q 685 958 671 944 q 718 972 699 972 l 949 972 q 981 958 968 972 q 995 926 995 944 l 995 46 q 981 14 995 28 q 949 0 968 0 l 718 0 q 685 14 699 0 q 671 46 671 28 l 671 336 l 394 336 l 394 46 q 380 14 394 28 q 347 0 366 0 l 116 0 q 83 14 97 0 q 69 46 69 28 z "},"I":{"ha":463,"x_min":69,"x_max":394,"o":"m 69 46 l 69 926 q 83 958 69 944 q 116 972 97 972 l 347 972 q 380 958 366 972 q 394 926 394 944 l 394 46 q 380 14 394 28 q 347 0 366 0 l 116 0 q 83 14 97 0 q 69 46 69 28 z "},"J":{"ha":671,"x_min":0,"x_max":602,"o":"m 0 98 q 6 118 0 109 l 95 248 q 123 262 104 262 q 145 256 137 262 q 220 231 186 231 q 278 301 278 231 l 278 926 q 292 958 278 944 q 324 972 306 972 l 556 972 q 588 958 574 972 q 602 926 602 944 l 602 278 q 511 63 602 137 q 289 -12 420 -12 q 15 69 128 -12 q 0 98 0 80 z "},"K":{"ha":1030,"x_min":69,"x_max":1007,"o":"m 69 46 l 69 926 q 83 958 69 944 q 116 972 97 972 l 347 972 q 380 958 366 972 q 394 926 394 944 l 394 613 l 440 613 l 613 926 q 641 962 628 953 q 677 972 654 972 l 926 972 q 972 943 972 972 q 966 926 972 935 l 706 509 l 1001 46 q 1007 29 1007 37 q 961 0 1007 0 l 694 0 q 659 10 671 0 q 631 46 646 20 l 440 370 l 394 370 l 394 46 q 380 14 394 28 q 347 0 366 0 l 116 0 q 83 14 97 0 q 69 46 69 28 z "},"L":{"ha":764,"x_min":69,"x_max":741,"o":"m 69 46 l 69 926 q 83 958 69 944 q 116 972 97 972 l 347 972 q 380 958 366 972 q 394 926 394 944 l 394 243 l 694 243 q 727 229 713 243 q 741 197 741 215 l 741 46 q 727 14 741 28 q 694 0 713 0 l 116 0 q 83 14 97 0 q 69 46 69 28 z "},"M":{"ha":1250,"x_min":69,"x_max":1181,"o":"m 69 46 l 69 926 q 83 958 69 944 q 116 972 97 972 l 388 972 q 451 926 422 972 l 625 590 l 799 926 q 862 972 828 972 l 1134 972 q 1167 958 1153 972 q 1181 926 1181 944 l 1181 46 q 1167 14 1181 28 q 1134 0 1153 0 l 903 0 q 870 14 884 0 q 856 46 856 28 l 856 532 l 706 255 q 660 208 684 208 l 625 208 l 590 208 q 544 255 566 208 l 394 532 l 394 46 q 380 14 394 28 q 347 0 366 0 l 116 0 q 83 14 97 0 q 69 46 69 28 z "},"N":{"ha":1065,"x_min":69,"x_max":995,"o":"m 69 46 l 69 926 q 83 958 69 944 q 116 972 97 972 l 359 972 q 422 926 394 972 l 671 486 l 671 926 q 685 958 671 944 q 718 972 699 972 l 949 972 q 981 958 968 972 q 995 926 995 944 l 995 46 q 981 14 995 28 q 949 0 968 0 l 706 0 q 642 46 671 0 l 394 451 l 394 46 q 380 14 394 28 q 347 0 366 0 l 116 0 q 83 14 97 0 q 69 46 69 28 z "},"O":{"ha":1157,"x_min":35,"x_max":1123,"o":"m 72 290 q 53 336 72 290 q 35 486 35 382 q 72 682 35 590 q 177 844 109 774 q 348 955 244 914 q 579 995 453 995 q 809 955 705 995 q 981 844 913 914 q 1086 682 1049 774 q 1123 486 1123 590 q 1086 290 1123 382 q 981 128 1049 198 q 809 17 913 58 q 579 -23 705 -23 q 348 17 453 -23 q 177 128 244 58 q 72 290 109 198 m 433 654 q 405 622 433 654 q 376 486 376 590 q 433 318 376 382 q 579 255 491 255 q 724 318 667 255 q 781 486 781 382 q 724 654 781 590 q 579 718 667 718 q 433 654 491 718 z "},"P":{"ha":1007,"x_min":69,"x_max":984,"o":"m 69 46 l 69 926 q 83 958 69 944 q 116 972 97 972 l 579 972 q 875 873 766 972 q 984 625 984 773 q 877 377 984 476 q 579 278 771 278 l 394 278 l 394 46 q 380 14 394 28 q 347 0 366 0 l 116 0 q 83 14 97 0 q 69 46 69 28 m 394 509 l 521 509 q 624 541 589 509 q 660 625 660 573 q 623 708 660 676 q 521 741 586 741 l 394 741 l 394 509 z "},"Q":{"ha":1169,"x_min":35,"x_max":1123,"o":"m 72 290 q 53 336 72 290 q 35 486 35 382 q 72 682 35 590 q 177 844 109 774 q 348 955 244 914 q 579 995 453 995 q 809 955 705 995 q 981 844 913 914 q 1086 682 1049 774 q 1123 486 1123 590 q 1013 164 1123 301 l 1075 104 q 1086 80 1086 95 q 1075 56 1086 65 l 975 -44 q 950 -54 964 -54 q 926 -44 936 -54 l 848 35 q 579 -23 730 -23 q 348 17 453 -23 q 177 128 244 58 q 72 290 109 198 m 433 654 q 405 622 433 654 q 376 486 376 590 q 433 318 376 382 q 579 255 491 255 q 628 260 602 255 l 551 340 q 541 365 541 351 q 551 390 541 380 l 640 480 q 663 490 649 490 q 689 479 676 490 l 770 400 q 781 486 781 444 q 724 654 781 590 q 579 718 667 718 q 433 654 491 718 z "},"R":{"ha":1042,"x_min":69,"x_max":1019,"o":"m 69 46 l 69 926 q 83 958 69 944 q 116 972 97 972 l 579 972 q 875 873 766 972 q 984 625 984 773 q 939 453 984 530 q 810 330 895 375 l 1013 46 q 1019 29 1019 37 q 972 0 1019 0 l 706 0 q 670 10 683 0 q 642 46 657 20 l 498 278 l 394 278 l 394 46 q 380 14 394 28 q 347 0 366 0 l 116 0 q 83 14 97 0 q 69 46 69 28 m 394 509 l 521 509 q 624 541 589 509 q 660 625 660 573 q 623 708 660 676 q 521 741 586 741 l 394 741 l 394 509 z "},"S":{"ha":949,"x_min":46,"x_max":914,"o":"m 46 104 q 56 133 46 117 l 139 278 q 174 301 152 301 q 203 295 191 301 q 463 220 343 220 q 556 266 556 220 q 498 324 556 308 q 255 411 337 372 q 58 677 58 506 q 93 821 58 758 q 188 921 127 883 q 323 977 248 958 q 486 995 398 995 q 851 903 675 995 q 880 868 880 889 q 870 839 880 855 l 799 712 q 764 689 786 689 q 735 694 747 689 q 498 752 623 752 q 417 706 417 752 q 434 671 417 686 q 475 648 451 655 q 683 579 617 605 q 745 552 719 565 q 805 515 771 539 q 861 462 839 491 q 899 388 883 433 q 914 289 914 344 q 878 149 914 211 q 779 50 841 87 q 639 -5 716 14 q 475 -23 563 -23 q 75 69 257 -23 q 46 104 46 83 z "},"T":{"ha":856,"x_min":23,"x_max":833,"o":"m 23 775 l 23 926 q 37 958 23 944 q 69 972 51 972 l 787 972 q 819 958 806 972 q 833 926 833 944 l 833 775 q 819 743 833 757 q 787 729 806 729 l 590 729 l 590 46 q 576 14 590 28 q 544 0 563 0 l 313 0 q 280 14 294 0 q 266 46 266 28 l 266 729 l 69 729 q 37 743 51 729 q 23 775 23 757 z "},"U":{"ha":1065,"x_min":69,"x_max":995,"o":"m 69 324 l 69 926 q 83 958 69 944 q 116 972 97 972 l 347 972 q 380 958 366 972 q 394 926 394 944 l 394 359 q 432 256 394 293 q 532 220 471 220 q 633 256 594 220 q 671 359 671 293 l 671 926 q 685 958 671 944 q 718 972 699 972 l 949 972 q 981 958 968 972 q 995 926 995 944 l 995 324 q 869 69 995 162 q 532 -23 743 -23 q 196 69 322 -23 q 69 324 69 162 z "},"V":{"ha":1134,"x_min":23,"x_max":1111,"o":"m 23 943 q 69 972 23 972 l 318 972 q 376 926 362 972 l 556 347 l 561 313 l 567 313 l 573 313 l 579 347 l 758 926 q 816 972 772 972 l 1065 972 q 1111 943 1111 972 q 1105 926 1111 935 l 770 46 q 752 16 766 31 q 718 0 737 0 l 567 0 l 417 0 q 383 16 397 0 q 365 46 368 31 l 29 926 q 23 943 23 935 z "},"W":{"ha":1586,"x_min":23,"x_max":1563,"o":"m 23 943 q 69 972 23 972 l 336 972 q 394 926 384 972 l 509 394 l 515 359 l 527 359 l 532 394 l 671 926 q 685 961 676 950 q 718 972 694 972 l 793 972 l 868 972 q 900 961 891 972 q 914 926 910 950 l 1053 394 l 1059 359 l 1071 359 l 1076 394 l 1192 926 q 1250 972 1201 972 l 1516 972 q 1563 943 1563 972 q 1559 926 1563 940 l 1279 46 q 1261 16 1275 31 q 1227 0 1247 0 l 949 0 q 891 46 902 0 l 793 486 l 694 46 q 637 0 684 0 l 359 0 q 325 16 339 0 q 307 46 310 31 l 27 926 q 23 943 23 940 z "},"X":{"ha":1088,"x_min":23,"x_max":1065,"o":"m 23 29 q 29 46 23 37 l 313 498 l 64 926 q 58 943 58 935 q 104 972 58 972 l 365 972 q 400 962 388 972 q 428 926 413 953 l 544 671 l 660 926 q 688 962 675 953 q 723 972 700 972 l 984 972 q 1030 943 1030 972 q 1024 926 1030 935 l 775 498 l 1059 46 q 1065 29 1065 37 q 1019 0 1065 0 l 735 0 q 699 10 712 0 q 671 46 686 20 l 544 289 l 417 46 q 389 10 402 20 q 353 0 376 0 l 69 0 q 23 29 23 0 z "},"Y":{"ha":1088,"x_min":35,"x_max":1053,"o":"m 35 943 q 81 972 35 972 l 341 972 q 377 962 365 972 q 405 926 390 953 l 544 625 l 683 926 q 711 962 698 953 q 747 972 723 972 l 1007 972 q 1053 943 1053 972 q 1047 926 1053 935 l 706 324 l 706 46 q 692 14 706 28 q 660 0 678 0 l 428 0 q 396 14 410 0 q 382 46 382 28 l 382 324 l 41 926 q 35 943 35 935 z "},"Z":{"ha":961,"x_min":35,"x_max":926,"o":"m 35 46 l 35 179 q 37 197 35 189 q 45 215 39 206 q 54 229 51 225 q 68 245 58 234 q 81 260 79 257 l 486 729 l 116 729 q 83 743 97 729 q 69 775 69 757 l 69 926 q 83 958 69 944 q 116 972 97 972 l 845 972 q 877 958 863 972 q 891 926 891 944 l 891 775 q 889 758 891 766 q 881 740 887 749 q 872 726 875 730 q 858 709 868 721 q 845 694 847 698 l 475 243 l 880 243 q 912 229 898 243 q 926 197 926 215 l 926 46 q 912 14 926 28 q 880 0 898 0 l 81 0 q 49 14 63 0 q 35 46 35 28 z "},"[":{"ha":556,"x_min":58,"x_max":509,"o":"m 58 -127 l 58 961 q 72 993 58 979 q 104 1007 86 1007 l 475 1007 q 499 997 488 1007 q 509 972 509 986 l 509 845 q 499 821 509 831 q 475 810 488 810 l 336 810 l 336 23 l 475 23 q 499 13 488 23 q 509 -12 509 2 l 509 -139 q 499 -163 509 -153 q 475 -174 488 -174 l 104 -174 q 72 -160 86 -174 q 58 -127 58 -146 z "},"\\":{"ha":694,"x_min":43,"x_max":652,"o":"m 43 958 q 68 972 43 972 l 241 972 q 292 938 279 972 l 646 35 q 652 14 652 23 q 626 0 652 0 l 454 0 q 403 35 416 0 l 49 938 q 43 958 43 949 z "},"]":{"ha":556,"x_min":46,"x_max":498,"o":"m 498 961 l 498 -127 q 484 -160 498 -146 q 451 -174 470 -174 l 81 -174 q 57 -163 67 -174 q 46 -139 46 -153 l 46 -12 q 57 13 46 2 q 81 23 67 23 l 220 23 l 220 810 l 81 810 q 57 821 67 810 q 46 845 46 831 l 46 972 q 57 997 46 986 q 81 1007 67 1007 l 451 1007 q 484 993 470 1007 q 498 961 498 979 z "},"^":{"ha":694,"x_min":23,"x_max":671,"o":"m 23 718 q 35 747 23 730 l 214 938 q 278 972 247 972 l 347 972 l 417 972 q 480 938 448 972 l 660 747 q 671 718 671 730 q 666 702 671 709 q 648 694 660 694 l 512 694 q 503 695 507 694 q 495 697 499 696 q 487 700 492 698 q 480 704 483 703 q 472 708 478 705 q 465 714 466 712 q 456 720 463 715 q 447 727 449 726 l 347 799 l 248 727 q 240 720 245 725 q 231 715 234 716 q 225 710 229 713 q 218 705 220 707 q 211 702 215 704 q 204 699 207 700 q 197 697 201 698 q 190 695 193 696 q 183 694 186 694 l 46 694 q 29 702 35 694 q 23 718 23 709 z "},"_":{"ha":810,"x_min":58,"x_max":752,"o":"m 58 -35 q 68 -10 58 -21 q 93 0 79 0 l 718 0 q 742 -10 731 0 q 752 -35 752 -21 l 752 -174 q 742 -198 752 -187 q 718 -208 731 -208 l 93 -208 q 68 -198 79 -208 q 58 -174 58 -187 l 58 -35 z "},"`":{"ha":521,"x_min":0,"x_max":475,"o":"m 0 949 q 23 972 0 972 l 237 972 q 296 938 269 972 l 463 747 q 475 718 475 730 q 469 702 475 709 q 451 694 463 694 l 324 694 q 259 729 302 694 l 29 909 q 0 949 0 927 z "},"a":{"ha":856,"x_min":35,"x_max":810,"o":"m 101 50 q 68 80 101 50 q 35 208 35 111 q 101 367 35 306 q 289 428 167 428 q 498 360 421 428 l 498 417 q 347 509 498 509 q 185 480 260 509 q 128 463 140 463 q 100 498 113 463 l 64 590 q 58 619 58 604 q 81 654 58 644 q 428 718 234 718 q 712 645 615 718 q 810 428 810 572 l 810 46 q 796 14 810 28 q 764 0 782 0 l 567 0 q 535 14 549 0 q 521 46 521 28 l 521 81 q 513 71 519 78 q 488 49 508 65 q 444 20 468 32 q 378 -2 420 8 q 289 -12 337 -12 q 101 50 167 -12 m 367 252 q 357 245 367 252 q 347 208 347 237 q 367 165 347 179 q 417 150 387 150 q 498 176 465 150 l 498 241 q 417 266 465 266 q 367 252 387 266 z "},"b":{"ha":926,"x_min":69,"x_max":891,"o":"m 69 46 l 69 926 q 83 958 69 944 q 116 972 97 972 l 336 972 q 368 958 354 972 q 382 926 382 944 l 382 630 q 556 706 450 706 q 799 603 706 706 q 891 347 891 500 q 799 91 891 194 q 556 -12 706 -12 q 359 95 429 -12 l 359 46 q 345 14 359 28 q 313 0 331 0 l 116 0 q 83 14 97 0 q 69 46 69 28 m 382 264 q 463 208 403 208 q 537 245 507 208 q 567 347 567 281 q 537 450 567 413 q 463 486 507 486 q 382 431 403 486 l 382 264 z "},"c":{"ha":752,"x_min":35,"x_max":718,"o":"m 146 83 q 91 137 146 83 q 35 347 35 190 q 146 611 35 505 q 440 718 258 718 q 496 716 469 718 q 545 710 523 714 q 584 702 567 706 q 617 693 602 698 q 641 684 633 688 q 660 676 649 681 q 671 671 670 671 q 718 625 718 652 q 706 590 718 616 l 660 486 q 631 457 648 457 q 601 466 622 457 q 561 480 580 476 q 498 486 536 486 q 398 448 438 486 q 359 347 359 410 q 398 247 359 285 q 498 208 438 208 q 561 214 536 208 q 601 228 580 219 q 631 237 622 237 q 660 208 648 237 l 706 104 q 718 69 718 79 q 671 23 718 43 q 660 19 670 23 q 641 10 649 14 q 617 2 633 7 q 584 -8 602 -3 q 545 -16 567 -12 q 496 -21 523 -20 q 440 -23 469 -23 q 146 83 258 -23 z "},"d":{"ha":926,"x_min":35,"x_max":856,"o":"m 127 91 q 81 143 127 91 q 35 347 35 194 q 127 603 35 500 q 370 706 220 706 q 544 630 476 706 l 544 926 q 558 958 544 944 q 590 972 572 972 l 810 972 q 843 958 829 972 q 856 926 856 944 l 856 46 q 843 14 856 28 q 810 0 829 0 l 613 0 q 581 14 595 0 q 567 46 567 28 l 567 95 q 370 -12 497 -12 q 127 91 220 -12 m 389 450 q 374 431 389 450 q 359 347 359 413 q 389 245 359 281 q 463 208 419 208 q 544 264 523 208 l 544 431 q 463 486 523 486 q 389 450 419 486 z "},"e":{"ha":845,"x_min":35,"x_max":810,"o":"m 146 83 q 91 137 146 83 q 35 347 35 190 q 146 611 35 505 q 440 718 258 718 q 704 626 598 718 q 810 370 810 535 q 764 278 810 278 l 336 278 q 486 185 368 185 q 590 197 541 185 q 630 211 609 201 q 660 220 650 220 q 689 191 677 220 l 723 116 q 735 81 735 90 q 734 72 735 76 q 729 65 733 68 q 723 58 726 61 q 715 52 721 56 q 707 46 709 47 q 697 40 705 44 q 689 35 690 36 q 440 -23 590 -23 q 146 83 258 -23 m 329 405 l 532 405 q 508 480 532 451 q 440 509 484 509 q 329 405 350 509 z "},"f":{"ha":625,"x_min":35,"x_max":637,"o":"m 35 544 l 35 660 q 45 684 35 674 q 69 694 56 694 l 127 694 l 127 752 q 206 943 127 878 q 405 1007 285 1007 q 617 955 522 1007 q 637 924 637 944 q 631 903 637 914 l 579 799 q 544 787 568 778 q 486 799 516 799 q 417 729 417 799 l 417 694 l 544 694 q 568 684 558 694 q 579 660 579 674 l 579 544 q 568 520 579 530 q 544 509 558 509 l 428 509 l 428 46 q 414 14 428 28 q 382 0 400 0 l 162 0 q 130 14 144 0 q 116 46 116 28 l 116 509 l 69 509 q 45 520 56 509 q 35 544 35 530 z "},"g":{"ha":787,"x_min":35,"x_max":799,"o":"m 35 451 q 125 645 35 572 q 370 718 215 718 q 600 657 510 718 l 625 683 q 648 694 637 694 l 764 694 q 788 684 778 694 q 799 660 799 674 l 799 556 q 788 531 799 542 q 764 521 778 521 l 697 521 q 706 451 706 486 q 616 258 706 331 q 370 185 525 185 q 278 193 318 185 q 266 168 266 178 q 282 145 266 152 q 336 139 299 139 l 451 139 q 656 80 583 139 q 729 -69 729 22 q 635 -259 729 -193 q 370 -324 542 -324 q 98 -295 203 -324 q 52 -255 52 -282 l 58 -226 l 90 -139 q 116 -116 98 -116 q 135 -119 126 -116 q 159 -128 144 -122 q 191 -139 174 -134 q 289 -150 234 -150 q 394 -122 394 -150 q 347 -93 394 -93 l 272 -93 q 129 -52 189 -93 q 69 69 69 -10 q 162 234 69 168 q 35 451 35 303 m 370 544 q 341 544 370 544 q 313 451 313 544 q 370 359 313 359 q 428 451 428 359 q 370 544 428 544 z "},"h":{"ha":909,"x_min":69,"x_max":856,"o":"m 69 46 l 69 926 q 83 958 69 944 q 116 972 97 972 l 336 972 q 368 958 354 972 q 382 926 382 944 l 382 594 q 602 706 459 706 q 786 635 716 706 q 856 440 856 565 l 856 46 q 843 14 856 28 q 810 0 829 0 l 579 0 q 546 14 560 0 q 532 46 532 28 l 532 370 q 519 442 532 421 q 475 463 505 463 q 394 385 418 463 l 394 46 q 380 14 394 28 q 347 0 366 0 l 116 0 q 83 14 97 0 q 69 46 69 28 z "},"i":{"ha":463,"x_min":69,"x_max":394,"o":"m 69 46 l 69 648 q 83 681 69 667 q 116 694 97 694 l 347 694 q 380 681 366 694 q 394 648 394 667 l 394 46 q 380 14 394 28 q 347 0 366 0 l 116 0 q 83 14 97 0 q 69 46 69 28 m 93 799 l 93 938 q 103 962 93 951 q 127 972 113 972 l 336 972 q 360 962 350 972 q 370 938 370 951 l 370 799 q 360 774 370 785 q 336 764 350 764 l 127 764 q 103 774 113 764 q 93 799 93 785 z "},"j":{"ha":463,"x_min":69,"x_max":394,"o":"m 69 -255 l 69 648 q 83 681 69 667 q 116 694 97 694 l 347 694 q 380 681 366 694 q 394 648 394 667 l 394 -162 q 358 -256 394 -223 q 231 -289 323 -289 q 163 -286 199 -289 q 106 -280 127 -284 l 87 -278 q 69 -255 69 -274 m 93 799 l 93 938 q 103 962 93 951 q 127 972 113 972 l 336 972 q 360 962 350 972 q 370 938 370 951 l 370 799 q 360 774 370 785 q 336 764 350 764 l 127 764 q 103 774 113 764 q 93 799 93 785 z "},"k":{"ha":891,"x_min":69,"x_max":874,"o":"m 69 46 l 69 926 q 83 958 69 944 q 116 972 97 972 l 336 972 q 368 958 354 972 q 382 926 382 944 l 382 451 l 428 451 l 513 648 q 576 694 531 694 l 802 694 q 848 666 848 694 q 843 648 848 657 l 683 359 l 868 46 q 874 29 874 37 q 828 0 874 0 l 584 0 q 521 46 542 0 l 428 243 l 382 243 l 382 46 q 368 14 382 28 q 336 0 354 0 l 116 0 q 83 14 97 0 q 69 46 69 28 z "},"l":{"ha":463,"x_min":69,"x_max":394,"o":"m 69 116 l 69 926 q 83 958 69 944 q 116 972 97 972 l 347 972 q 380 958 366 972 q 394 926 394 944 l 394 23 q 376 0 394 3 q 231 -12 303 -12 q 105 21 140 -12 q 69 116 69 54 z "},"m":{"ha":1279,"x_min":58,"x_max":1227,"o":"m 58 46 l 58 648 q 72 681 58 667 q 104 694 86 694 l 313 694 q 345 681 331 694 q 359 648 359 667 l 359 594 q 567 706 436 706 q 777 578 722 706 q 995 706 855 706 q 1164 641 1101 706 q 1227 451 1227 575 l 1227 46 q 1213 14 1227 28 q 1181 0 1199 0 l 961 0 q 928 14 942 0 q 914 46 914 28 l 914 382 q 903 454 914 433 q 868 475 891 475 q 829 457 844 475 q 799 404 814 440 l 799 46 q 785 14 799 28 q 752 0 771 0 l 532 0 q 500 14 514 0 q 486 46 486 28 l 486 382 q 475 454 486 433 q 440 475 463 475 q 400 457 416 475 q 370 404 385 440 l 370 46 q 356 14 370 28 q 324 0 343 0 l 104 0 q 72 14 86 0 q 58 46 58 28 z "},"n":{"ha":897,"x_min":58,"x_max":845,"o":"m 58 46 l 58 648 q 72 681 58 667 q 104 694 86 694 l 313 694 q 345 681 331 694 q 359 648 359 667 l 359 576 q 590 706 438 706 q 775 635 705 706 q 845 440 845 565 l 845 46 q 831 14 845 28 q 799 0 817 0 l 567 0 q 535 14 549 0 q 521 46 521 28 l 521 370 q 507 442 521 421 q 463 463 493 463 q 382 385 406 463 l 382 46 q 368 14 382 28 q 336 0 354 0 l 104 0 q 72 14 86 0 q 58 46 58 28 z "},"o":{"ha":880,"x_min":35,"x_max":845,"o":"m 146 83 q 91 137 146 83 q 35 347 35 190 q 146 611 35 505 q 440 718 258 718 q 733 611 622 718 q 845 347 845 505 q 733 83 845 190 q 440 -23 622 -23 q 146 83 258 -23 m 363 439 q 350 421 363 439 q 336 347 336 403 q 363 256 336 292 q 440 220 391 220 q 516 256 488 220 q 544 347 544 292 q 516 439 544 403 q 440 475 488 475 q 363 439 391 475 z "},"p":{"ha":926,"x_min":69,"x_max":891,"o":"m 69 -231 l 69 648 q 83 681 69 667 q 116 694 97 694 l 313 694 q 345 681 331 694 q 359 648 359 667 l 359 600 q 556 706 429 706 q 799 603 706 706 q 891 347 891 500 q 799 91 891 194 q 556 -12 706 -12 q 382 65 450 -12 l 382 -231 q 368 -264 382 -250 q 336 -278 354 -278 l 116 -278 q 83 -264 97 -278 q 69 -231 69 -250 m 382 264 q 463 208 403 208 q 537 245 507 208 q 567 347 567 281 q 537 450 567 413 q 463 486 507 486 q 382 431 403 486 l 382 264 z "},"q":{"ha":926,"x_min":35,"x_max":856,"o":"m 127 91 q 81 143 127 91 q 35 347 35 194 q 127 603 35 500 q 370 706 220 706 q 567 600 497 706 l 567 648 q 581 681 567 667 q 613 694 595 694 l 810 694 q 843 681 829 694 q 856 648 856 667 l 856 -231 q 843 -264 856 -250 q 810 -278 829 -278 l 590 -278 q 558 -264 572 -278 q 544 -231 544 -250 l 544 65 q 370 -12 476 -12 q 127 91 220 -12 m 389 450 q 374 431 389 450 q 359 347 359 413 q 389 245 359 281 q 463 208 419 208 q 544 264 523 208 l 544 431 q 463 486 523 486 q 389 450 419 486 z "},"r":{"ha":602,"x_min":69,"x_max":579,"o":"m 69 46 l 69 648 q 83 681 69 667 q 116 694 97 694 l 324 694 q 356 681 343 694 q 370 648 370 667 l 370 582 q 550 700 442 700 q 579 671 579 700 l 579 486 q 567 462 579 462 q 550 465 564 462 q 521 469 537 469 q 394 388 432 469 l 394 46 q 380 14 394 28 q 347 0 366 0 l 116 0 q 83 14 97 0 q 69 46 69 28 z "},"s":{"ha":729,"x_min":46,"x_max":694,"o":"m 46 475 q 135 651 46 584 q 370 718 225 718 q 631 666 507 718 q 671 625 671 649 q 660 590 671 611 l 625 515 q 596 492 616 492 q 550 509 587 492 q 428 538 486 538 q 359 503 359 538 q 368 484 359 493 q 387 470 377 475 q 417 457 397 465 q 521 417 466 436 q 579 391 553 404 q 633 354 604 377 q 678 297 662 331 q 694 221 694 263 q 645 83 694 140 q 521 2 595 27 q 359 -23 447 -23 q 87 32 219 -23 q 52 75 52 47 q 64 116 52 90 l 98 185 q 127 212 110 212 q 144 207 134 212 q 168 194 154 203 q 191 183 182 186 q 307 156 253 156 q 370 191 370 156 q 313 237 370 216 q 208 278 235 266 q 46 475 46 347 z "},"t":{"ha":613,"x_min":23,"x_max":608,"o":"m 23 544 l 23 660 q 34 684 23 674 q 58 694 44 694 l 116 694 l 116 856 q 130 889 116 875 q 162 903 144 903 l 359 903 q 391 889 377 903 q 405 856 405 875 l 405 694 l 532 694 q 557 684 546 694 q 567 660 567 674 l 567 544 q 557 520 567 530 q 532 509 546 509 l 417 509 l 417 278 q 433 217 417 237 q 475 197 450 197 q 521 208 500 197 q 531 215 524 211 q 542 223 537 220 q 550 226 546 226 q 566 207 559 226 l 602 101 q 608 75 608 78 q 584 45 608 60 q 347 -23 488 -23 q 168 39 231 -23 q 104 231 104 102 l 104 509 l 58 509 q 34 520 44 509 q 23 544 23 530 z "},"u":{"ha":897,"x_min":52,"x_max":839,"o":"m 839 648 l 839 46 q 826 14 839 28 q 793 0 813 0 l 584 0 q 552 14 565 0 q 538 46 538 28 l 538 118 q 307 -12 459 -12 q 122 59 192 -12 q 52 255 52 130 l 52 648 q 65 681 52 667 q 98 694 79 694 l 330 694 q 363 681 350 694 q 376 648 376 667 l 376 324 q 390 252 376 273 q 434 231 404 231 q 515 309 491 231 l 515 648 q 528 681 515 667 q 561 694 542 694 l 793 694 q 826 681 813 694 q 839 648 839 667 z "},"v":{"ha":903,"x_min":23,"x_max":880,"o":"m 23 666 q 69 694 23 694 l 301 694 q 359 648 347 694 l 440 289 l 446 255 l 451 255 l 457 255 l 463 289 l 544 648 q 602 694 556 694 l 833 694 q 880 666 880 694 q 874 648 880 657 l 654 46 q 636 16 650 31 q 602 0 622 0 l 451 0 l 301 0 q 267 16 281 0 q 249 46 252 31 l 29 648 q 23 666 23 657 z "},"w":{"ha":1215,"x_min":17,"x_max":1198,"o":"m 17 671 q 69 694 17 694 l 301 694 q 353 648 345 694 l 405 313 l 411 266 l 422 266 l 428 313 l 509 648 q 523 683 514 672 q 556 694 532 694 l 608 694 l 660 694 q 692 683 683 694 q 706 648 701 672 l 787 313 l 793 266 l 804 266 l 810 313 l 862 648 q 914 694 870 694 l 1146 694 q 1198 671 1198 694 q 1192 648 1198 662 l 1019 46 q 966 0 1006 0 l 723 0 q 671 46 686 0 l 608 289 l 544 46 q 492 0 529 0 l 249 0 q 197 46 209 0 l 23 648 q 17 671 17 662 z "},"x":{"ha":880,"x_min":23,"x_max":856,"o":"m 23 29 q 29 46 23 37 l 231 359 l 52 648 q 46 666 46 657 q 93 694 46 694 l 318 694 q 354 684 343 694 q 376 648 366 674 l 440 486 l 503 648 q 525 684 514 674 q 561 694 537 694 l 787 694 q 833 666 833 694 q 828 648 833 657 l 648 359 l 851 46 q 856 29 856 37 q 810 0 856 0 l 567 0 q 532 10 544 0 q 509 46 521 21 l 440 208 l 370 46 q 347 10 359 21 q 313 0 336 0 l 69 0 q 23 29 23 0 z "},"y":{"ha":903,"x_min":23,"x_max":880,"o":"m 23 666 q 69 694 23 694 l 301 694 q 359 648 347 694 l 440 289 l 446 255 l 451 255 l 457 255 l 463 289 l 544 648 q 602 694 556 694 l 833 694 q 880 666 880 694 q 874 648 880 657 l 637 0 q 289 -301 553 -301 q 122 -278 211 -301 q 82 -261 101 -272 q 64 -237 64 -250 q 75 -203 64 -229 l 113 -104 q 139 -75 125 -75 q 179 -90 147 -75 q 243 -104 212 -104 q 318 -80 295 -104 q 358 -3 340 -56 q 214 139 259 19 l 29 648 q 23 666 23 657 z "},"z":{"ha":787,"x_min":35,"x_max":752,"o":"m 35 35 l 35 133 q 69 197 35 162 l 359 509 l 93 509 q 68 520 79 509 q 58 544 58 530 l 58 660 q 68 684 58 674 q 93 694 79 694 l 694 694 q 719 685 708 694 q 729 660 729 676 l 729 556 q 694 492 729 527 l 428 185 l 718 185 q 742 175 731 185 q 752 150 752 164 l 752 35 q 742 10 752 21 q 718 0 731 0 l 69 0 q 45 9 56 0 q 35 35 35 19 z "},"{":{"ha":556,"x_min":12,"x_max":521,"o":"m 12 399 l 12 417 l 12 434 q 46 469 12 454 q 78 487 60 475 q 117 538 96 500 q 139 625 139 575 l 139 833 q 190 961 139 916 q 324 1007 241 1007 l 486 1007 q 510 997 500 1007 q 521 972 521 986 l 521 845 q 510 821 521 831 q 486 810 500 810 l 463 810 q 425 796 433 810 q 417 741 417 782 l 417 590 q 407 521 417 553 q 384 471 398 490 q 356 440 370 453 q 333 421 343 427 l 324 417 q 334 411 328 416 q 356 394 340 407 q 385 362 373 380 q 407 312 397 344 q 417 243 417 280 l 417 93 q 425 37 417 51 q 463 23 433 23 l 486 23 q 510 13 500 23 q 521 -12 521 2 l 521 -139 q 510 -163 521 -153 q 486 -174 500 -174 l 324 -174 q 190 -128 241 -174 q 139 0 139 -82 l 139 208 q 117 296 139 258 q 78 346 96 333 q 46 365 60 359 q 12 399 12 380 z "},"|":{"ha":417,"x_min":87,"x_max":330,"o":"m 87 -139 l 87 972 q 97 997 87 986 q 122 1007 108 1007 l 295 1007 q 319 997 309 1007 q 330 972 330 986 l 330 -139 q 319 -163 330 -153 q 295 -174 309 -174 l 122 -174 q 97 -163 108 -174 q 87 -139 87 -153 z "},"}":{"ha":556,"x_min":35,"x_max":544,"o":"m 544 434 l 544 417 l 544 399 q 509 365 544 380 q 477 346 495 359 q 438 296 459 333 q 417 208 417 258 l 417 0 q 366 -128 417 -82 q 231 -174 315 -174 l 69 -174 q 45 -163 56 -174 q 35 -139 35 -153 l 35 -12 q 45 13 35 2 q 69 23 56 23 l 93 23 q 131 37 123 23 q 139 93 139 51 l 139 243 q 148 312 139 280 q 171 362 157 344 q 199 394 185 381 q 222 412 213 406 l 231 417 q 222 422 228 418 q 199 440 215 426 q 171 472 183 454 q 149 521 159 490 q 139 590 139 553 l 139 741 q 131 796 139 782 q 93 810 123 810 l 69 810 q 45 821 56 810 q 35 845 35 831 l 35 972 q 45 997 35 986 q 69 1007 56 1007 l 231 1007 q 366 961 315 1007 q 417 833 417 916 l 417 625 q 438 538 417 575 q 477 487 459 500 q 509 469 495 475 q 544 434 544 454 z "},"~":{"ha":752,"x_min":52,"x_max":700,"o":"m 52 366 q 58 406 52 383 q 80 455 65 428 q 117 505 95 483 q 175 541 139 527 q 255 556 211 556 q 281 554 267 556 q 302 551 294 552 q 325 545 310 550 q 343 538 339 539 q 363 530 346 537 q 382 521 381 522 q 498 486 461 486 q 558 532 530 486 q 581 550 568 550 l 602 544 l 683 501 q 700 468 700 492 q 694 428 700 450 q 672 378 688 405 q 635 329 657 351 q 578 292 613 307 q 498 278 542 278 q 472 280 485 278 q 450 282 458 281 q 428 289 442 284 q 410 295 413 294 q 389 304 406 296 q 370 313 372 311 q 255 347 292 347 q 194 301 222 347 q 171 284 184 284 l 150 289 l 69 332 q 52 366 52 341 z "}," ":{"ha":417,"x_min":0,"x_max":0,"o":""},"ก":{"ha":891,"x_min":23,"x_max":845,"o":"m 23 584 q 46 619 23 605 q 67 630 53 623 q 122 653 80 637 q 208 683 164 670 q 315 707 251 697 q 440 718 378 718 q 737 644 630 718 q 845 428 845 569 l 845 46 q 831 14 845 28 q 799 0 817 0 l 579 0 q 546 14 560 0 q 532 46 532 28 l 532 428 q 511 490 532 471 q 440 509 490 509 q 373 506 412 509 q 417 417 417 470 l 417 46 q 403 14 417 28 q 370 0 389 0 l 150 0 q 118 14 132 0 q 104 46 104 28 l 104 428 q 95 461 104 455 q 88 459 93 461 q 80 458 83 458 q 75 457 76 457 q 52 480 60 457 l 29 556 q 23 584 23 575 z "},"ข":{"ha":874,"x_min":58,"x_max":822,"o":"m 58 255 q 81 373 58 315 q 127 458 104 431 l 150 486 l 93 486 q 68 497 79 486 q 58 521 58 507 l 58 660 q 68 683 58 674 q 93 694 79 693 l 301 694 q 440 556 440 694 q 405 411 440 509 q 370 255 370 313 q 389 203 370 220 q 440 185 409 185 q 509 255 509 185 l 509 648 q 523 681 509 667 q 556 694 537 694 l 775 694 q 808 681 794 694 q 822 648 822 667 l 822 255 q 721 46 822 115 q 440 -23 620 -23 q 160 47 262 -23 q 58 255 58 118 z "},"ฃ":{"ha":885,"x_min":23,"x_max":833,"o":"m 23 532 l 23 683 q 38 703 23 703 q 58 694 46 703 l 150 637 q 313 706 220 706 q 431 663 387 706 q 475 556 475 620 q 428 411 475 509 q 382 255 382 313 q 451 185 382 185 q 521 255 521 185 l 521 648 q 535 681 521 667 q 567 694 549 694 l 787 694 q 819 681 806 694 q 833 648 833 667 l 833 255 q 733 46 833 115 q 451 -23 632 -23 q 170 46 271 -23 q 69 255 69 115 q 93 337 69 299 q 145 398 117 376 q 196 446 172 420 q 220 492 220 471 q 197 521 220 521 q 139 480 169 521 q 116 463 127 463 l 93 475 l 41 503 q 23 532 23 514 z "},"ค":{"ha":903,"x_min":46,"x_max":856,"o":"m 46 46 l 46 428 q 154 644 46 569 q 451 718 262 718 q 749 644 641 718 q 856 428 856 569 l 856 46 q 843 14 856 28 q 810 0 829 0 l 590 0 q 558 14 572 0 q 544 46 544 28 l 544 417 q 518 477 544 456 q 451 498 492 498 q 385 477 411 498 q 359 417 359 456 l 359 336 q 440 394 397 394 q 469 388 457 394 q 486 359 486 380 l 486 203 q 481 192 486 196 q 469 189 476 188 q 440 191 455 191 q 359 145 388 191 l 359 46 q 345 14 359 28 q 313 0 331 0 l 93 0 q 60 14 74 0 q 46 46 46 28 z "},"ฅ":{"ha":903,"x_min":46,"x_max":856,"o":"m 46 46 l 46 451 q 121 644 46 569 q 278 718 196 718 q 350 692 307 718 q 422 639 394 666 l 451 613 q 483 642 463 625 q 549 689 502 660 q 625 718 596 718 q 782 644 707 718 q 856 451 856 569 l 856 46 q 843 14 856 28 q 810 0 829 0 l 590 0 q 558 14 572 0 q 544 46 544 28 l 544 428 q 538 461 544 447 q 527 481 532 476 l 521 486 l 480 457 q 451 446 463 446 q 439 448 447 446 q 427 454 432 451 l 422 457 l 382 486 q 359 428 359 470 l 359 336 q 440 394 397 394 q 469 388 457 394 q 486 359 486 380 l 486 203 q 481 192 486 196 q 469 189 476 188 q 440 191 455 191 q 359 145 388 191 l 359 46 q 345 14 359 28 q 313 0 331 0 l 93 0 q 60 14 74 0 q 46 46 46 28 z "},"ฆ":{"ha":897,"x_min":23,"x_max":845,"o":"m 23 532 l 23 683 q 38 703 23 703 q 58 694 46 703 l 150 637 q 313 706 220 706 q 431 663 387 706 q 475 556 475 620 q 435 425 475 510 q 387 297 395 339 q 463 231 411 231 q 532 324 532 231 l 532 648 q 546 681 532 667 q 579 694 560 694 l 799 694 q 831 681 817 694 q 845 648 845 667 l 845 255 q 775 59 845 130 q 590 -12 705 -12 q 359 118 438 -12 l 359 46 q 345 14 359 28 q 313 0 331 0 l 116 0 q 83 14 97 0 q 69 46 69 28 l 69 255 q 93 337 69 299 q 145 398 117 376 q 196 446 172 420 q 220 492 220 471 q 197 521 220 521 q 139 480 169 521 q 116 463 127 463 l 93 475 l 41 503 q 23 532 23 514 z "},"ง":{"ha":891,"x_min":17,"x_max":856,"o":"m 17 666 q 64 694 17 694 l 266 694 q 324 648 313 694 l 446 185 q 525 229 494 185 q 556 347 556 272 q 529 450 556 413 q 463 486 502 486 q 421 509 427 486 l 391 631 q 388 650 388 644 q 405 683 388 674 q 532 706 443 706 q 769 604 682 706 q 856 347 856 501 q 746 90 856 192 q 440 -12 635 -12 q 269 -3 368 -12 q 234 14 249 -2 q 216 46 220 31 l 23 642 q 17 666 17 657 z "},"จ":{"ha":822,"x_min":35,"x_max":787,"o":"m 35 619 q 58 654 35 644 q 394 718 211 718 q 683 624 579 718 q 787 370 787 531 q 686 102 787 216 q 428 -12 584 -12 q 252 -3 352 -12 q 200 46 219 -1 l 127 220 l 93 220 q 68 230 79 220 q 58 255 58 241 l 58 359 q 68 383 58 373 q 93 394 79 394 l 278 394 q 359 336 338 394 l 409 194 q 475 359 475 230 q 433 470 475 432 q 313 509 391 509 q 162 486 235 509 q 145 480 157 485 q 123 472 133 475 q 105 469 112 469 q 76 503 90 469 l 41 590 q 35 619 35 604 z "},"ฉ":{"ha":868,"x_min":46,"x_max":822,"o":"m 46 619 q 69 654 46 644 q 428 718 222 718 q 719 644 617 718 q 822 428 822 571 l 822 46 q 808 14 822 28 q 775 0 794 0 l 579 0 q 546 14 560 0 q 532 46 532 28 l 532 106 q 436 25 502 61 q 278 -12 369 -12 q 156 28 208 -12 q 104 150 104 67 l 104 220 l 93 220 q 68 230 79 220 q 58 255 58 241 l 58 359 q 68 383 58 373 q 93 394 79 394 l 301 394 q 367 377 353 394 q 382 324 382 361 l 382 243 q 428 185 382 185 q 509 236 471 185 l 509 394 q 461 481 509 453 q 336 509 413 509 q 179 486 252 509 q 117 469 123 469 q 88 503 102 469 l 52 590 q 46 619 46 604 z "},"ช":{"ha":891,"x_min":58,"x_max":862,"o":"m 58 255 q 81 373 58 315 q 127 458 104 431 l 150 486 l 93 486 q 68 497 79 486 q 58 521 58 507 l 58 660 q 68 683 58 674 q 93 694 79 693 l 301 694 q 440 556 440 694 q 405 411 440 509 q 370 255 370 313 q 389 203 370 220 q 440 185 409 185 q 509 255 509 185 l 509 428 q 486 498 509 491 q 463 521 463 505 l 463 590 q 470 606 463 600 q 486 613 477 613 q 571 641 535 613 q 620 700 606 669 q 634 752 634 730 q 645 777 634 766 q 669 787 655 787 l 828 787 q 852 777 841 787 q 862 752 862 766 q 815 629 862 688 q 689 535 769 571 q 784 474 745 517 q 822 382 822 431 l 822 255 q 721 46 822 115 q 440 -23 620 -23 q 160 47 262 -23 q 58 255 58 118 z "},"ซ":{"ha":903,"x_min":23,"x_max":874,"o":"m 23 532 l 23 683 q 38 703 23 703 q 58 694 46 703 l 150 637 q 313 706 220 706 q 431 663 387 706 q 475 556 475 620 q 428 411 475 509 q 382 255 382 313 q 451 185 382 185 q 521 255 521 185 l 521 428 q 498 498 521 491 q 480 521 480 502 l 480 590 q 498 613 480 613 q 582 641 546 613 q 632 700 618 669 q 646 752 646 730 q 656 777 646 766 q 681 787 667 787 l 839 787 q 863 777 853 787 q 874 752 874 766 q 827 629 874 688 q 700 535 780 571 q 795 474 757 517 q 833 382 833 431 l 833 255 q 733 46 833 115 q 451 -23 632 -23 q 170 46 271 -23 q 69 255 69 115 q 93 337 69 299 q 145 398 117 376 q 196 446 172 420 q 220 492 220 471 q 197 521 220 521 q 139 480 169 521 q 116 463 127 463 l 93 475 l 41 503 q 23 532 23 514 z "},"ฌ":{"ha":1331,"x_min":23,"x_max":1273,"o":"m 23 584 q 46 619 23 605 q 67 630 53 623 q 122 653 80 637 q 208 683 164 670 q 315 707 251 697 q 440 718 378 718 q 737 644 630 718 q 845 428 845 569 l 845 266 q 914 220 876 220 q 949 241 938 220 q 961 313 961 262 l 961 648 q 975 681 961 667 q 1007 694 988 694 l 1227 694 q 1259 681 1245 694 q 1273 648 1273 667 l 1273 243 q 1210 54 1273 119 q 1042 -12 1147 -12 q 822 106 897 -12 l 822 46 q 808 14 822 28 q 775 0 794 0 l 579 0 q 546 14 560 0 q 532 46 532 28 l 532 428 q 511 490 532 471 q 440 509 490 509 q 368 505 406 509 q 405 417 405 472 l 405 174 l 440 174 q 464 163 454 174 q 475 139 475 153 l 475 35 q 464 10 475 21 q 440 0 454 0 l 231 0 q 135 30 167 0 q 104 104 104 59 l 104 428 q 91 459 104 459 q 75 457 78 457 q 52 480 60 457 l 29 556 q 23 584 23 575 z "},"ญ":{"ha":1331,"x_min":23,"x_max":1273,"o":"m 590 -197 q 596 -174 590 -185 l 637 -81 q 666 -64 642 -64 q 689 -69 674 -64 q 903 -116 781 -116 q 1117 -69 1024 -116 q 1140 -64 1132 -64 q 1169 -81 1163 -64 l 1209 -174 q 1215 -197 1215 -185 q 1192 -227 1215 -218 q 1128 -254 1148 -245 q 1041 -276 1108 -263 q 903 -289 975 -289 q 764 -276 831 -289 q 678 -254 698 -263 q 613 -227 657 -245 q 590 -197 590 -218 m 23 584 q 46 619 23 605 q 67 630 53 623 q 122 653 80 637 q 208 683 164 670 q 315 707 251 697 q 440 718 378 718 q 737 644 630 718 q 845 428 845 569 l 845 255 q 903 185 845 185 q 961 255 961 185 l 961 648 q 975 681 961 667 q 1007 694 988 694 l 1227 694 q 1259 681 1245 694 q 1273 648 1273 667 l 1273 243 q 1183 50 1273 124 q 903 -23 1093 -23 q 623 50 713 -23 q 532 243 532 124 l 532 428 q 511 490 532 471 q 440 509 490 509 q 368 505 406 509 q 405 417 405 472 l 405 174 l 440 174 q 464 163 454 174 q 475 139 475 153 l 475 35 q 464 10 475 21 q 440 0 454 0 l 231 0 q 135 30 167 0 q 104 104 104 59 l 104 428 q 90 459 104 459 q 75 457 79 457 q 52 480 60 457 l 29 556 q 23 584 23 575 z "},"ฎ":{"ha":897,"x_min":23,"x_max":845,"o":"m 23 584 q 46 619 23 605 q 67 630 53 623 q 122 653 80 637 q 208 683 164 670 q 315 707 251 697 q 440 718 378 718 q 737 644 630 718 q 845 428 845 569 l 845 -231 q 831 -264 845 -250 q 799 -278 817 -278 l 567 -278 q 528 -262 553 -271 q 427 -236 502 -252 q 278 -220 351 -220 q 131 -255 200 -220 q 104 -266 113 -266 q 81 -249 86 -266 l 52 -156 q 46 -132 46 -139 q 69 -104 46 -117 q 266 -58 149 -58 q 532 -120 407 -58 l 532 428 q 511 490 532 471 q 440 509 490 509 q 378 506 416 509 q 417 417 417 471 l 417 104 q 385 30 417 59 q 289 0 354 0 l 81 0 q 57 10 67 0 q 46 35 46 21 l 46 139 q 57 163 46 153 q 81 174 67 174 l 116 174 l 116 428 q 101 462 116 462 q 93 461 98 462 q 82 458 87 459 q 75 457 78 457 q 52 480 60 457 l 29 556 q 23 584 23 575 z "},"ฏ":{"ha":897,"x_min":23,"x_max":845,"o":"m 23 584 q 46 619 23 605 q 67 630 53 623 q 122 653 80 637 q 208 683 164 670 q 315 707 251 697 q 440 718 378 718 q 737 644 630 718 q 845 428 845 569 l 845 -231 q 831 -264 845 -250 q 799 -278 817 -278 l 590 -278 l 521 -278 q 492 -266 505 -278 l 427 -209 q 220 -289 334 -289 q 69 -243 131 -289 q 52 -220 52 -230 q 61 -193 52 -212 l 106 -117 q 133 -93 119 -93 q 143 -95 138 -93 q 153 -101 148 -97 l 156 -104 q 226 -127 194 -127 q 347 -81 296 -127 q 370 -69 361 -69 l 434 -69 q 457 -81 446 -69 l 532 -148 l 532 428 q 511 490 532 471 q 440 509 490 509 q 378 506 416 509 q 417 417 417 471 l 417 104 q 385 30 417 59 q 289 0 354 0 l 81 0 q 57 10 67 0 q 46 35 46 21 l 46 139 q 57 163 46 153 q 81 174 67 174 l 116 174 l 116 428 q 101 462 116 462 q 93 461 98 462 q 82 458 87 459 q 75 457 78 457 q 52 480 60 457 l 29 556 q 23 584 23 575 z "},"ฐ":{"ha":856,"x_min":35,"x_max":833,"o":"m 41 -220 q 50 -193 41 -212 l 95 -117 q 122 -93 108 -93 q 131 -95 126 -93 q 141 -101 137 -97 l 145 -104 q 214 -127 183 -127 q 336 -81 285 -127 q 359 -69 350 -69 l 422 -69 q 446 -81 434 -69 l 544 -169 l 544 -104 q 554 -80 544 -90 q 579 -69 565 -69 l 718 -69 q 742 -80 731 -69 q 752 -104 752 -90 l 752 -243 q 742 -267 752 -257 q 718 -278 731 -278 l 579 -278 l 544 -278 l 509 -278 q 480 -266 493 -278 l 416 -209 q 208 -289 323 -289 q 58 -243 119 -289 q 41 -220 41 -230 m 35 619 q 58 654 35 644 q 394 718 211 718 q 541 689 476 718 q 799 785 688 785 q 823 774 813 785 q 833 750 833 764 l 833 625 q 823 601 833 611 q 799 590 813 590 q 693 578 737 590 q 787 370 787 484 q 686 102 787 216 q 428 -12 584 -12 q 252 -3 352 -12 q 200 46 219 -1 l 127 220 l 93 220 q 68 230 79 220 q 58 255 58 241 l 58 359 q 68 383 58 373 q 93 394 79 394 l 278 394 q 359 336 338 394 l 409 194 q 475 359 475 230 q 433 470 475 432 q 313 509 391 509 q 162 486 235 509 q 145 480 157 485 q 123 472 133 475 q 105 469 112 469 q 76 503 90 469 l 41 590 q 35 619 35 604 z "},"ฑ":{"ha":909,"x_min":23,"x_max":856,"o":"m 23 532 l 23 683 q 38 703 23 703 q 58 694 46 703 l 150 637 q 313 706 220 706 q 425 667 382 706 q 475 568 469 628 q 671 706 559 706 q 814 639 771 706 q 856 440 856 572 l 856 46 q 843 14 856 28 q 810 0 829 0 l 579 0 q 546 14 560 0 q 532 46 532 28 l 532 382 q 503 428 532 428 q 446 377 471 428 q 405 255 420 326 l 405 46 q 391 14 405 28 q 359 0 377 0 l 127 0 q 95 14 109 0 q 81 46 81 28 l 81 255 q 103 337 81 299 q 150 398 125 376 q 198 446 176 420 q 220 492 220 471 q 197 521 220 521 q 139 480 169 521 q 116 463 127 463 l 93 475 l 41 503 q 23 532 23 514 z "},"ฒ":{"ha":1366,"x_min":35,"x_max":1308,"o":"m 127 91 q 81 143 127 91 q 35 347 35 194 q 123 603 35 500 q 359 706 212 706 q 579 561 479 706 l 579 648 q 593 681 579 667 q 625 694 606 694 l 833 694 q 866 681 852 694 q 880 648 880 667 l 880 266 q 949 220 911 220 q 984 241 972 220 q 995 313 995 262 l 995 648 q 1009 681 995 667 q 1042 694 1023 694 l 1262 694 q 1294 681 1280 694 q 1308 648 1308 667 l 1308 243 q 1245 54 1308 119 q 1076 -12 1182 -12 q 856 106 932 -12 l 856 46 q 843 14 856 28 q 810 0 829 0 l 613 0 q 581 14 595 0 q 567 46 567 28 l 567 387 q 508 455 547 424 q 440 486 469 486 q 383 450 406 486 q 359 347 359 413 q 389 244 359 279 q 451 208 419 208 q 475 211 463 208 l 486 214 q 498 197 498 214 l 498 46 q 463 6 498 20 q 370 -12 414 -12 q 127 91 220 -12 z "},"ณ":{"ha":1331,"x_min":23,"x_max":1273,"o":"m 23 584 q 46 619 23 605 q 67 630 53 623 q 122 653 80 637 q 208 683 164 670 q 315 707 251 697 q 440 718 378 718 q 737 644 630 718 q 845 428 845 569 l 845 313 q 856 241 845 262 q 891 220 868 220 q 961 266 929 220 l 961 648 q 975 681 961 667 q 1007 694 988 694 l 1227 694 q 1259 681 1245 694 q 1273 648 1273 667 l 1273 46 q 1259 14 1273 28 q 1227 0 1245 0 l 1030 0 q 998 14 1012 0 q 984 46 984 28 l 984 106 q 764 -12 909 -12 q 595 54 659 -12 q 532 243 532 119 l 532 428 q 511 490 532 471 q 440 509 490 509 q 368 505 406 509 q 405 417 405 472 l 405 174 l 440 174 q 464 163 454 174 q 475 139 475 153 l 475 35 q 464 10 475 21 q 440 0 454 0 l 231 0 q 135 30 167 0 q 104 104 104 59 l 104 428 q 91 459 104 459 q 75 457 78 457 q 52 480 60 457 l 29 556 q 23 584 23 575 z "},"ด":{"ha":914,"x_min":35,"x_max":868,"o":"m 35 347 q 152 611 35 503 q 475 718 269 718 q 763 634 659 718 q 868 428 868 551 l 868 46 q 854 14 868 28 q 822 0 840 0 l 602 0 q 569 14 583 0 q 556 46 556 28 l 556 417 q 534 464 556 442 q 475 486 513 486 q 389 451 420 486 q 359 347 359 416 q 389 244 359 279 q 451 208 419 208 q 475 211 463 208 l 486 214 q 498 197 498 214 l 498 46 q 463 6 498 20 q 370 -12 414 -12 q 127 91 220 -12 q 35 347 35 194 z "},"ต":{"ha":938,"x_min":35,"x_max":880,"o":"m 127 91 q 81 143 127 91 q 35 347 35 194 q 123 603 35 500 q 359 706 212 706 q 579 561 479 706 l 579 648 q 593 681 579 667 q 625 694 606 694 l 833 694 q 866 681 852 694 q 880 648 880 667 l 880 46 q 866 14 880 28 q 833 0 852 0 l 613 0 q 581 14 595 0 q 567 46 567 28 l 567 387 q 508 455 547 424 q 440 486 469 486 q 383 450 406 486 q 359 347 359 413 q 389 244 359 279 q 451 208 419 208 q 475 211 463 208 l 486 214 q 498 197 498 214 l 498 46 q 463 6 498 20 q 370 -12 414 -12 q 127 91 220 -12 z "},"ถ":{"ha":891,"x_min":23,"x_max":845,"o":"m 23 584 q 46 619 23 605 q 67 630 53 623 q 122 653 80 637 q 208 683 164 670 q 315 707 251 697 q 440 718 378 718 q 737 644 630 718 q 845 428 845 569 l 845 46 q 831 14 845 28 q 799 0 817 0 l 579 0 q 546 14 560 0 q 532 46 532 28 l 532 428 q 511 490 532 471 q 440 509 490 509 q 368 505 406 509 q 405 417 405 472 l 405 174 l 440 174 q 464 163 454 174 q 475 139 475 153 l 475 35 q 464 10 475 21 q 440 0 454 0 l 231 0 q 135 30 167 0 q 104 104 104 59 l 104 428 q 91 459 104 459 q 75 457 78 457 q 52 480 60 457 l 29 556 q 23 584 23 575 z "},"ท":{"ha":897,"x_min":58,"x_max":845,"o":"m 58 46 l 58 648 q 72 681 58 667 q 104 694 86 694 l 313 694 q 345 681 331 694 q 359 648 359 667 l 359 576 q 590 706 438 706 q 775 635 705 706 q 845 440 845 565 l 845 46 q 831 14 845 28 q 799 0 817 0 l 567 0 q 535 14 549 0 q 521 46 521 28 l 521 370 q 507 442 521 421 q 463 463 493 463 q 382 385 406 463 l 382 46 q 368 14 382 28 q 336 0 354 0 l 104 0 q 72 14 86 0 q 58 46 58 28 z "},"ธ":{"ha":833,"x_min":46,"x_max":799,"o":"m 46 486 q 143 654 46 590 q 394 718 240 718 q 557 704 478 718 q 663 682 635 691 q 706 666 690 672 q 752 619 752 647 q 741 579 752 604 l 712 521 q 677 492 700 492 q 660 495 670 492 q 635 505 650 499 q 608 515 620 512 q 428 544 516 544 q 370 521 370 544 q 373 509 370 514 q 381 499 375 503 q 391 494 387 495 q 404 490 395 492 q 417 486 413 487 q 525 455 434 480 q 625 428 617 431 q 799 208 799 375 q 700 39 799 102 q 451 -23 602 -23 q 189 11 309 -23 q 69 81 69 45 l 69 243 q 83 275 69 262 q 116 289 97 289 l 279 289 q 197 313 256 295 q 84 376 122 336 q 46 486 46 417 m 347 154 q 411 150 383 150 q 498 191 498 150 q 417 255 498 236 q 387 262 411 256 q 347 272 363 267 l 347 154 z "},"น":{"ha":897,"x_min":52,"x_max":839,"o":"m 839 648 l 839 46 q 826 14 839 28 q 793 0 813 0 l 584 0 q 552 14 565 0 q 538 46 538 28 l 538 118 q 307 -12 459 -12 q 122 59 192 -12 q 52 255 52 130 l 52 648 q 65 681 52 667 q 98 694 79 694 l 330 694 q 363 681 350 694 q 376 648 376 667 l 376 324 q 390 252 376 273 q 434 231 404 231 q 515 309 491 231 l 515 648 q 528 681 515 667 q 561 694 542 694 l 793 694 q 826 681 813 694 q 839 648 839 667 z "},"บ":{"ha":914,"x_min":52,"x_max":862,"o":"m 52 266 l 52 648 q 65 681 52 667 q 98 694 79 694 l 330 694 q 363 681 350 694 q 376 648 376 667 l 376 278 q 457 197 376 197 q 538 278 538 197 l 538 648 q 552 681 538 667 q 584 694 565 694 l 816 694 q 849 681 836 694 q 862 648 862 667 l 862 266 q 755 51 862 125 q 457 -23 647 -23 q 160 51 267 -23 q 52 266 52 125 z "},"ป":{"ha":949,"x_min":52,"x_max":885,"o":"m 52 266 l 52 648 q 65 681 52 667 q 98 694 79 694 l 330 694 q 363 681 350 694 q 376 648 376 667 l 376 278 q 469 197 376 197 q 561 278 561 197 l 561 926 q 575 958 561 944 q 608 972 588 972 l 839 972 q 872 958 859 972 q 885 926 885 944 l 885 266 q 774 51 885 125 q 469 -23 663 -23 q 163 51 274 -23 q 52 266 52 125 z "},"ผ":{"ha":1065,"x_min":35,"x_max":1007,"o":"m 35 347 q 122 604 35 501 q 359 706 209 706 q 486 683 449 706 q 503 650 503 674 l 500 631 l 470 509 q 428 486 464 486 q 369 451 390 486 q 347 347 347 416 q 387 235 347 271 l 463 359 q 490 395 479 385 q 515 405 501 405 l 544 405 l 573 405 q 598 395 587 405 q 625 359 609 385 l 694 247 l 694 648 q 708 681 694 667 q 741 694 722 694 l 961 694 q 993 681 979 694 q 1007 648 1007 667 l 1007 46 q 993 14 1007 28 q 961 0 979 0 l 694 0 q 628 46 657 0 l 544 174 l 459 46 q 394 0 431 0 l 266 0 q 112 104 190 0 q 35 347 35 208 z "},"ฝ":{"ha":1076,"x_min":35,"x_max":1007,"o":"m 35 347 q 122 604 35 501 q 359 706 209 706 q 486 683 449 706 q 503 650 503 674 l 500 631 l 470 509 q 428 486 464 486 q 369 451 390 486 q 347 347 347 416 q 387 235 347 271 l 463 359 q 490 395 479 385 q 515 405 501 405 l 544 405 l 573 405 q 598 395 587 405 q 625 359 609 385 l 694 247 l 694 926 q 708 958 694 944 q 741 972 722 972 l 961 972 q 993 958 979 972 q 1007 926 1007 944 l 1007 46 q 993 14 1007 28 q 961 0 979 0 l 694 0 q 628 46 657 0 l 544 174 l 459 46 q 394 0 431 0 l 266 0 q 112 104 190 0 q 35 347 35 208 z "},"พ":{"ha":1215,"x_min":17,"x_max":1198,"o":"m 17 671 q 69 694 17 694 l 301 694 q 353 648 345 694 l 405 313 l 411 266 l 422 266 l 428 313 l 509 648 q 523 683 514 672 q 556 694 532 694 l 608 694 l 660 694 q 692 683 683 694 q 706 648 701 672 l 787 313 l 793 266 l 804 266 l 810 313 l 862 648 q 914 694 870 694 l 1146 694 q 1198 671 1198 694 q 1192 648 1198 662 l 1019 46 q 966 0 1006 0 l 723 0 q 671 46 686 0 l 608 289 l 544 46 q 492 0 529 0 l 249 0 q 197 46 209 0 l 23 648 q 17 671 17 662 z "},"ฟ":{"ha":1204,"x_min":17,"x_max":1198,"o":"m 17 671 q 69 694 17 694 l 301 694 q 353 648 345 694 l 405 313 l 411 266 l 422 266 l 428 313 l 509 648 q 523 683 514 672 q 556 694 532 694 l 608 694 l 660 694 q 692 683 683 694 q 706 648 701 672 l 787 313 l 793 266 l 804 266 l 810 313 l 885 926 q 938 972 894 972 l 1146 972 q 1198 949 1198 972 q 1192 914 1198 943 l 1030 46 q 978 0 1020 0 l 723 0 q 671 46 686 0 l 608 289 l 544 46 q 492 0 529 0 l 249 0 q 197 46 209 0 l 23 648 q 17 671 17 662 z "},"ภ":{"ha":891,"x_min":23,"x_max":845,"o":"m 23 584 q 46 619 23 605 q 67 630 53 623 q 122 653 80 637 q 208 683 164 670 q 315 707 251 697 q 440 718 378 718 q 737 644 630 718 q 845 428 845 569 l 845 46 q 831 14 845 28 q 799 0 817 0 l 579 0 q 546 14 560 0 q 532 46 532 28 l 532 428 q 511 490 532 471 q 440 509 490 509 q 378 506 416 509 q 417 417 417 471 l 417 104 q 385 30 417 59 q 289 0 354 0 l 81 0 q 57 10 67 0 q 46 35 46 21 l 46 139 q 57 163 46 153 q 81 174 67 174 l 116 174 l 116 428 q 101 462 116 462 q 93 461 98 462 q 82 458 87 459 q 75 457 78 457 q 52 480 60 457 l 29 556 q 23 584 23 575 z "},"ม":{"ha":897,"x_min":58,"x_max":845,"o":"m 58 46 l 58 648 q 72 681 58 667 q 104 694 86 694 l 336 694 q 368 681 354 694 q 382 648 382 667 l 382 309 q 463 231 406 231 q 507 252 493 231 q 521 324 521 273 l 521 648 q 535 681 521 667 q 567 694 549 694 l 799 694 q 831 681 817 694 q 845 648 845 667 l 845 255 q 775 59 845 130 q 590 -12 705 -12 q 359 118 438 -12 l 359 46 q 345 14 359 28 q 313 0 331 0 l 104 0 q 72 14 86 0 q 58 46 58 28 z "},"ย":{"ha":897,"x_min":35,"x_max":845,"o":"m 35 220 q 116 363 35 316 q 35 498 35 411 q 101 646 35 586 q 289 706 168 706 q 417 683 355 706 q 451 648 451 669 l 451 556 q 440 538 451 538 q 427 541 438 538 q 405 544 416 544 q 336 492 336 544 q 405 440 336 440 l 417 440 q 441 429 431 440 q 451 405 451 419 l 451 336 q 441 312 451 322 q 417 301 431 302 q 358 282 380 299 q 336 237 336 265 q 366 192 336 209 q 440 174 397 174 q 506 194 480 174 q 532 255 532 215 l 532 648 q 546 681 532 667 q 579 694 560 694 l 799 694 q 831 681 817 694 q 845 648 845 667 l 845 266 q 737 51 845 125 q 440 -23 630 -23 q 142 49 249 -23 q 35 220 35 122 z "},"ร":{"ha":729,"x_min":35,"x_max":683,"o":"m 683 220 q 594 43 683 110 q 359 -23 505 -23 q 98 29 222 -23 q 58 69 58 45 q 69 104 58 83 l 104 179 q 133 203 113 203 q 179 185 142 203 q 301 156 243 156 q 370 191 370 156 q 361 211 370 201 q 342 225 352 220 q 313 237 332 229 q 208 278 263 258 q 150 304 176 291 q 96 340 125 317 q 51 398 67 363 q 35 473 35 432 q 84 611 35 554 q 208 693 134 668 q 370 718 282 718 q 642 662 510 718 q 677 619 677 647 q 666 579 677 604 l 631 509 q 602 483 619 483 q 585 487 595 483 q 561 500 575 492 q 538 512 547 508 q 422 538 476 538 q 359 503 359 538 q 417 457 359 478 q 521 417 494 428 q 683 220 683 347 z "},"ฤ":{"ha":897,"x_min":23,"x_max":845,"o":"m 23 584 q 46 619 23 605 q 67 630 53 623 q 122 653 80 637 q 208 683 164 670 q 315 707 251 697 q 440 718 378 718 q 737 644 630 718 q 845 428 845 569 l 845 -231 q 831 -264 845 -250 q 799 -278 817 -278 l 579 -278 q 546 -264 560 -278 q 532 -231 532 -250 l 532 428 q 511 490 532 471 q 440 509 490 509 q 368 505 406 509 q 405 417 405 472 l 405 174 l 440 174 q 464 163 454 174 q 475 139 475 153 l 475 35 q 464 10 475 21 q 440 0 454 0 l 231 0 q 135 30 167 0 q 104 104 104 59 l 104 428 q 91 459 104 459 q 75 457 78 457 q 52 480 60 457 l 29 556 q 23 584 23 575 z "},"ล":{"ha":856,"x_min":35,"x_max":810,"o":"m 101 50 q 68 80 101 50 q 35 208 35 111 q 101 367 35 306 q 289 428 167 428 q 498 360 421 428 l 498 417 q 347 509 498 509 q 185 480 260 509 q 128 463 140 463 q 100 498 113 463 l 64 590 q 58 619 58 604 q 81 654 58 644 q 428 718 234 718 q 712 645 615 718 q 810 428 810 572 l 810 46 q 796 14 810 28 q 764 0 782 0 l 544 0 q 512 14 525 0 q 498 46 498 28 l 498 241 q 417 266 465 266 q 367 252 387 266 q 347 208 347 237 q 365 164 347 178 q 405 150 382 150 q 427 153 416 150 q 440 156 438 156 q 451 139 451 156 l 451 46 q 417 12 451 25 q 289 -12 355 -12 q 101 50 167 -12 z "},"ฦ":{"ha":897,"x_min":23,"x_max":845,"o":"m 23 584 q 46 619 23 605 q 67 630 53 623 q 122 653 80 637 q 208 683 164 670 q 315 707 251 697 q 440 718 378 718 q 737 644 630 718 q 845 428 845 569 l 845 -231 q 831 -264 845 -250 q 799 -278 817 -278 l 579 -278 q 546 -264 560 -278 q 532 -231 532 -250 l 532 428 q 511 490 532 471 q 440 509 490 509 q 378 506 416 509 q 417 417 417 471 l 417 104 q 385 30 417 59 q 289 0 354 0 l 81 0 q 57 10 67 0 q 46 35 46 21 l 46 139 q 57 163 46 153 q 81 174 67 174 l 116 174 l 116 428 q 101 462 116 462 q 93 461 98 462 q 82 458 87 459 q 75 457 78 457 q 52 480 60 457 l 29 556 q 23 584 23 575 z "},"ว":{"ha":752,"x_min":35,"x_max":718,"o":"m 606 611 q 662 558 606 611 q 718 347 718 505 q 606 83 718 190 q 313 -23 494 -23 q 256 -21 284 -23 q 207 -16 229 -20 q 168 -8 185 -12 q 135 2 150 -3 q 111 10 119 7 q 93 19 103 14 q 81 23 82 23 q 35 69 35 43 q 46 104 35 79 l 93 208 q 122 237 104 237 q 152 228 131 237 q 191 214 172 219 q 255 208 216 208 q 354 247 315 208 q 394 347 394 285 q 354 448 394 410 q 255 486 315 486 q 191 480 216 486 q 152 466 172 476 q 122 457 131 457 q 93 486 104 457 l 46 590 q 35 625 35 617 q 81 671 35 652 q 93 676 82 671 q 111 684 103 681 q 135 693 119 688 q 168 702 150 698 q 207 710 185 706 q 256 716 229 714 q 313 718 284 718 q 606 611 494 718 z "},"ศ":{"ha":926,"x_min":46,"x_max":920,"o":"m 46 46 l 46 428 q 154 644 46 569 q 451 718 262 718 q 659 669 571 718 q 692 752 692 713 q 703 777 692 766 q 727 787 713 787 l 885 787 q 910 777 899 787 q 920 752 920 766 q 889 650 920 700 q 801 565 858 601 q 856 428 856 503 l 856 46 q 843 14 856 28 q 810 0 829 0 l 590 0 q 558 14 572 0 q 544 46 544 28 l 544 417 q 518 477 544 456 q 451 498 492 498 q 385 477 411 498 q 359 417 359 456 l 359 336 q 440 394 397 394 q 469 388 457 394 q 486 359 486 380 l 486 203 q 481 192 486 196 q 469 189 476 188 q 440 191 455 191 q 359 145 388 191 l 359 46 q 345 14 359 28 q 313 0 331 0 l 93 0 q 60 14 74 0 q 46 46 46 28 z "},"ษ":{"ha":961,"x_min":52,"x_max":943,"o":"m 52 266 l 52 648 q 65 681 52 667 q 98 694 79 694 l 330 694 q 363 681 350 694 q 376 648 376 667 l 376 278 q 457 197 376 197 q 524 218 498 197 q 550 278 550 238 l 550 336 l 469 336 q 444 346 454 336 q 434 370 434 356 l 434 463 q 444 487 434 477 q 469 498 455 497 l 550 498 l 550 648 q 563 681 550 667 q 596 694 576 694 l 804 694 q 837 681 824 694 q 851 648 851 667 l 851 498 l 909 498 q 933 487 922 497 q 943 463 943 477 l 943 370 q 933 346 943 356 q 909 336 924 336 l 862 336 l 862 266 q 755 51 862 125 q 457 -23 647 -23 q 160 51 267 -23 q 52 266 52 125 z "},"ส":{"ha":880,"x_min":35,"x_max":874,"o":"m 101 50 q 68 80 101 50 q 35 208 35 111 q 101 367 35 306 q 289 428 167 428 q 498 360 421 428 l 498 417 q 347 509 498 509 q 185 480 260 509 q 128 463 140 463 q 100 498 113 463 l 64 590 q 58 619 58 604 q 81 654 58 644 q 428 718 234 718 q 616 674 535 718 q 646 752 646 715 q 656 777 646 766 q 681 787 667 787 l 839 787 q 863 777 853 787 q 874 752 874 766 q 842 649 874 699 q 753 564 810 600 q 810 428 810 505 l 810 46 q 796 14 810 28 q 764 0 782 0 l 544 0 q 512 14 525 0 q 498 46 498 28 l 498 241 q 417 266 465 266 q 367 252 387 266 q 347 208 347 237 q 365 164 347 178 q 405 150 382 150 q 427 153 416 150 q 440 156 438 156 q 451 139 451 156 l 451 46 q 417 12 451 25 q 289 -12 355 -12 q 101 50 167 -12 z "},"ห":{"ha":856,"x_min":58,"x_max":839,"o":"m 58 46 l 58 648 q 72 681 58 667 q 104 694 86 694 l 324 694 q 356 681 343 694 q 370 648 370 667 l 370 498 l 434 498 l 492 648 q 556 694 510 694 l 752 694 q 799 666 799 694 q 793 648 799 657 l 703 475 q 747 431 729 459 q 771 382 765 403 q 787 324 778 361 l 828 98 l 833 69 q 839 35 839 42 q 828 10 839 21 q 795 0 816 0 l 554 0 q 503 46 508 0 l 486 220 q 465 300 481 275 q 405 324 449 324 l 370 324 l 370 46 q 356 14 370 28 q 324 0 343 0 l 104 0 q 72 14 86 0 q 58 46 58 28 z "},"ฬ":{"ha":1204,"x_min":17,"x_max":1221,"o":"m 17 671 q 69 694 17 694 l 301 694 q 353 648 345 694 l 405 313 l 411 266 l 422 266 l 428 313 l 509 648 q 523 683 514 672 q 556 694 532 694 l 608 694 l 660 694 q 692 683 683 694 q 706 648 701 672 l 787 313 l 793 266 l 804 266 l 810 313 l 834 463 q 839 515 839 497 q 819 567 839 552 q 814 582 814 571 l 822 613 l 841 683 q 861 694 846 694 q 993 787 976 694 q 1030 822 1000 822 l 1186 822 q 1211 811 1200 822 q 1221 787 1221 801 q 1163 657 1221 712 q 1035 578 1105 603 q 1102 537 1076 566 q 1128 463 1128 508 q 1123 417 1128 446 q 1111 368 1117 388 l 1105 347 l 1019 46 q 966 0 1006 0 l 723 0 q 671 46 686 0 l 608 289 l 544 46 q 492 0 529 0 l 249 0 q 197 46 209 0 l 23 648 q 17 671 17 662 z "},"อ":{"ha":845,"x_min":35,"x_max":810,"o":"m 35 301 q 53 367 35 341 q 104 394 72 394 l 336 394 q 360 383 350 394 q 370 359 370 373 l 370 301 q 360 277 370 287 q 336 266 350 266 l 318 266 q 343 206 318 227 q 405 185 368 185 q 498 347 498 185 q 324 509 498 509 q 185 486 258 509 q 168 480 181 485 q 146 472 156 475 q 128 469 135 469 q 100 503 113 469 l 64 590 q 58 619 58 604 q 81 654 58 644 q 417 718 234 718 q 706 619 602 718 q 810 347 810 520 q 698 83 810 190 q 405 -23 587 -23 q 137 60 240 -23 q 35 301 35 142 z "},"ฮ":{"ha":868,"x_min":35,"x_max":862,"o":"m 35 301 q 53 367 35 341 q 104 394 72 394 l 336 394 q 360 383 350 394 q 370 359 370 373 l 370 301 q 360 277 370 287 q 336 266 350 266 l 318 266 q 343 206 318 227 q 405 185 368 185 q 498 347 498 185 q 324 509 498 509 q 185 486 258 509 q 168 480 181 485 q 146 472 156 475 q 128 469 135 469 q 100 503 113 469 l 64 590 q 58 619 58 604 q 81 654 58 644 q 417 718 234 718 q 601 670 531 718 q 634 752 634 712 q 645 777 634 766 q 669 787 655 787 l 828 787 q 852 777 841 787 q 862 752 862 766 q 830 649 862 699 q 741 563 797 598 q 810 347 810 488 q 698 83 810 190 q 405 -23 587 -23 q 137 60 240 -23 q 35 301 35 142 z "},"ฯ":{"ha":810,"x_min":23,"x_max":741,"o":"m 23 567 l 23 648 q 37 681 23 667 q 69 694 51 694 l 220 694 q 252 681 238 694 q 266 648 266 667 l 266 625 q 336 532 266 532 q 396 556 369 532 q 440 619 424 580 l 440 648 q 454 681 440 667 q 486 694 468 694 l 694 694 q 727 681 713 694 q 741 648 741 667 l 741 46 q 727 14 741 28 q 694 0 713 0 l 463 0 q 431 14 444 0 q 417 46 417 28 l 417 404 q 243 336 351 336 q 83 403 141 336 q 23 567 24 471 z "},"ะ":{"ha":602,"x_min":46,"x_max":556,"o":"m 46 162 q 52 210 46 184 q 65 251 58 236 l 71 266 q 117 301 83 301 l 299 301 q 319 291 313 301 q 322 266 326 281 l 313 243 l 521 243 q 545 233 535 243 q 556 208 556 222 l 556 81 q 545 57 556 67 q 521 46 535 46 l 174 46 q 83 79 120 46 q 46 162 46 112 m 46 521 q 52 569 46 543 q 65 610 58 595 l 71 625 q 117 660 83 660 l 299 660 q 319 650 313 660 q 322 625 326 640 l 313 602 l 521 602 q 545 591 535 602 q 556 567 556 581 l 556 440 q 545 416 556 426 q 521 405 535 405 l 174 405 q 83 438 120 405 q 46 521 46 471 z "},"ั":{"ha":0,"x_min":-590,"x_max":-35,"o":"m -590 903 q -584 950 -590 924 q -572 991 -579 976 l -566 1007 q -520 1042 -553 1042 l -365 1042 q -344 1032 -351 1042 q -341 1007 -337 1022 l -353 972 l -69 972 q -45 962 -56 972 q -35 938 -35 951 l -35 833 q -45 809 -35 819 q -69 799 -56 799 l -463 799 q -554 826 -519 799 q -590 903 -590 854 z "},"า":{"ha":625,"x_min":6,"x_max":567,"o":"m 6 613 q 35 648 6 631 q 67 664 46 655 q 153 690 87 674 q 289 706 220 706 q 499 639 432 706 q 567 440 567 573 l 567 46 q 553 14 567 28 q 521 0 539 0 l 289 0 q 257 14 271 0 q 243 46 243 28 l 243 417 q 230 462 243 449 q 185 475 216 475 q 104 457 145 475 q 69 446 79 446 q 46 469 54 446 l 12 584 q 6 613 6 604 z "},"ำ":{"ha":625,"x_min":-451,"x_max":567,"o":"m 6 613 q 35 648 6 631 q 67 664 46 655 q 153 690 87 674 q 289 706 220 706 q 499 639 432 706 q 567 440 567 573 l 567 46 q 553 14 567 28 q 521 0 539 0 l 289 0 q 257 14 271 0 q 243 46 243 28 l 243 417 q 230 462 243 449 q 185 475 216 475 q 104 457 145 475 q 69 446 79 446 q 46 469 54 446 l 12 584 q 6 613 6 604 m -398 818 q -425 840 -398 818 q -451 932 -451 861 q -398 1045 -451 1002 q -249 1088 -345 1088 q -100 1045 -153 1088 q -46 932 -46 1002 q -100 818 -46 861 q -249 775 -153 775 q -398 818 -345 775 m -282 970 q -288 964 -282 970 q -295 932 -295 957 q -282 893 -295 906 q -249 880 -269 880 q -216 893 -229 880 q -203 932 -203 906 q -216 970 -203 957 q -249 984 -229 984 q -282 970 -269 984 z "},"ิ":{"ha":0,"x_min":-683,"x_max":-104,"o":"m -683 833 l -683 938 q -672 962 -683 951 q -648 972 -662 972 l -139 972 q -115 962 -125 972 q -104 938 -104 951 l -104 833 q -115 809 -104 819 q -139 799 -125 799 l -648 799 q -672 809 -662 799 q -683 833 -683 819 z "},"ี":{"ha":0,"x_min":-694,"x_max":-104,"o":"m -694 833 l -694 938 q -684 962 -694 951 q -660 972 -674 972 l -428 972 q -376 961 -399 972 q -345 938 -353 949 l -336 926 l -336 1030 q -325 1054 -336 1044 q -301 1065 -315 1065 l -139 1065 q -115 1054 -125 1065 q -104 1030 -104 1044 l -104 833 q -115 809 -104 819 q -139 799 -125 799 l -660 799 q -684 809 -674 799 q -694 833 -694 819 z "},"ึ":{"ha":0,"x_min":-706,"x_max":-81,"o":"m -706 833 l -706 938 q -696 962 -706 951 q -671 972 -685 972 l -475 972 q -404 924 -436 972 q -405 938 -405 928 q -361 1038 -405 1000 q -243 1076 -317 1076 q -125 1038 -169 1076 q -81 938 -81 1000 q -125 837 -81 875 q -243 799 -169 799 l -671 799 q -696 809 -685 799 q -706 833 -706 819 m -277 972 q -283 966 -277 972 q -289 938 -289 959 q -277 903 -289 916 q -243 891 -264 891 q -209 903 -222 891 q -197 938 -197 916 q -209 972 -197 959 q -243 984 -222 984 q -277 972 -264 984 z "},"ื":{"ha":0,"x_min":-706,"x_max":-93,"o":"m -706 833 l -706 938 q -696 962 -706 951 q -671 972 -685 972 l -579 972 q -532 961 -552 972 q -505 938 -512 949 l -498 926 l -498 1030 q -487 1054 -498 1044 q -463 1065 -477 1065 l -359 1065 q -334 1054 -345 1065 q -324 1030 -324 1044 l -324 914 l -266 914 l -266 1030 q -256 1054 -266 1044 q -231 1065 -245 1065 l -127 1065 q -103 1054 -113 1065 q -93 1030 -93 1044 l -93 833 q -103 809 -93 819 q -127 799 -113 799 l -671 799 q -696 809 -685 799 q -706 833 -706 819 z "},"ุ":{"ha":0,"x_min":-382,"x_max":-93,"o":"m -382 -104 q -372 -80 -382 -90 q -347 -69 -361 -69 l -162 -69 q -112 -89 -131 -69 q -93 -139 -93 -108 l -93 -289 q -103 -314 -93 -303 q -127 -324 -113 -324 l -289 -324 q -314 -314 -303 -324 q -324 -289 -324 -303 l -324 -208 l -347 -208 q -372 -198 -361 -208 q -382 -174 -382 -187 l -382 -104 z "},"ู":{"ha":0,"x_min":-637,"x_max":-81,"o":"m -637 -104 q -626 -80 -637 -90 q -602 -69 -616 -69 l -440 -69 q -389 -89 -409 -69 q -370 -139 -370 -108 l -370 -220 l -289 -220 l -289 -104 q -279 -80 -289 -90 q -255 -69 -269 -69 l -116 -69 q -91 -80 -102 -69 q -81 -104 -81 -90 l -81 -255 q -108 -305 -81 -286 q -185 -324 -134 -324 l -475 -324 q -552 -305 -525 -324 q -579 -255 -579 -286 l -579 -208 l -602 -208 q -626 -198 -616 -208 q -637 -174 -637 -187 l -637 -104 z "},"ฺ":{"ha":0,"x_min":-324,"x_max":-93,"o":"m -324 -104 q -314 -80 -324 -90 q -289 -69 -303 -69 l -127 -69 q -103 -80 -113 -69 q -93 -104 -93 -90 l -93 -220 q -103 -244 -93 -234 q -127 -255 -113 -255 l -289 -255 q -314 -244 -303 -255 q -324 -220 -324 -234 l -324 -104 z "},"฿":{"ha":949,"x_min":69,"x_max":914,"o":"m 69 46 l 69 926 q 83 958 69 944 q 116 972 97 972 l 324 972 l 324 1076 q 334 1101 324 1090 q 359 1111 345 1111 l 532 1111 q 557 1101 546 1111 q 567 1076 567 1090 l 567 969 q 792 883 716 953 q 868 706 868 814 q 737 502 868 567 q 914 255 914 434 q 895 158 914 201 q 841 86 875 115 q 763 38 808 58 q 669 10 718 19 q 567 0 620 1 l 567 -104 q 557 -128 567 -118 q 532 -139 546 -139 l 359 -139 q 334 -128 345 -139 q 324 -104 324 -118 l 324 0 l 116 0 q 83 14 97 0 q 69 46 69 28 m 394 208 l 451 208 q 532 235 498 208 q 567 301 567 262 q 538 375 567 345 q 451 405 508 405 l 394 405 l 394 208 m 394 579 l 451 579 q 510 607 487 579 q 532 671 532 635 q 506 735 532 706 q 440 764 479 764 l 394 764 l 394 579 z "},"เ":{"ha":451,"x_min":69,"x_max":382,"o":"m 69 116 l 69 648 q 83 681 69 667 q 116 694 97 694 l 336 694 q 368 681 354 694 q 382 648 382 667 l 382 23 q 365 0 382 3 q 231 -12 297 -12 q 105 21 140 -12 q 69 116 69 54 z "},"แ":{"ha":868,"x_min":69,"x_max":799,"o":"m 486 116 l 486 648 q 500 681 486 667 q 532 694 514 694 l 752 694 q 785 681 771 694 q 799 648 799 667 l 799 23 q 781 0 799 3 q 648 -12 714 -12 q 521 21 557 -12 q 486 116 486 54 m 69 116 l 69 648 q 83 681 69 667 q 116 694 97 694 l 336 694 q 368 681 354 694 q 382 648 382 667 l 382 23 q 365 0 382 3 q 231 -12 297 -12 q 105 21 140 -12 q 69 116 69 54 z "},"โ":{"ha":509,"x_min":0,"x_max":532,"o":"m 0 880 q 67 1021 0 965 q 243 1076 133 1076 q 509 1007 381 1076 q 532 969 532 994 l 525 949 l 478 870 q 457 851 465 851 q 424 865 449 851 q 372 889 407 875 q 313 903 337 903 q 269 895 282 903 q 255 868 255 888 q 280 830 255 851 q 336 789 306 809 q 391 731 366 769 q 417 648 417 693 l 417 23 q 399 0 417 3 q 266 -12 332 -12 q 139 21 175 -12 q 104 116 104 54 l 104 590 q 78 695 104 648 q 26 786 52 742 q 0 880 0 831 z "},"ใ":{"ha":509,"x_min":-12,"x_max":509,"o":"m -12 899 q -7 926 -12 910 q 83 1031 14 986 q 255 1076 153 1076 q 437 1020 365 1076 q 509 880 509 964 q 495 798 509 836 q 463 737 480 760 q 431 674 446 713 q 417 590 417 635 l 417 23 q 399 0 417 3 q 266 -12 332 -12 q 139 21 175 -12 q 104 116 104 54 l 104 590 q 131 675 104 632 q 191 747 159 718 q 251 807 223 777 q 278 856 278 838 q 231 903 278 903 q 175 881 203 903 q 134 830 148 859 q 116 816 127 816 q 81 831 111 816 l 6 874 q -12 899 -12 882 z "},"ไ":{"ha":509,"x_min":0,"x_max":532,"o":"m 0 909 l 0 1042 q 14 1059 0 1058 q 35 1050 22 1059 l 149 975 q 227 1045 176 1013 q 347 1076 279 1076 q 483 1027 434 1076 q 532 903 532 978 q 503 804 532 854 q 446 701 475 753 q 417 590 417 648 l 417 23 q 399 0 417 3 q 266 -12 332 -12 q 139 21 175 -12 q 104 116 104 54 l 104 590 q 124 666 104 628 q 174 733 145 704 q 231 786 203 762 q 281 833 260 811 q 301 868 301 854 q 266 903 301 903 q 166 833 218 903 q 161 827 164 832 q 157 819 159 822 q 150 813 155 816 q 141 810 146 810 l 116 822 l 17 880 q 0 909 0 890 z "},"ๅ":{"ha":625,"x_min":6,"x_max":567,"o":"m 6 613 q 35 648 6 631 q 67 664 46 655 q 153 690 87 674 q 289 706 220 706 q 499 639 432 706 q 567 440 567 573 l 567 -231 q 553 -264 567 -250 q 521 -278 539 -278 l 289 -278 q 257 -264 271 -278 q 243 -231 243 -250 l 243 417 q 230 462 243 449 q 185 475 216 475 q 104 457 145 475 q 69 446 79 446 q 46 469 54 446 l 12 584 q 6 613 6 604 z "},"ๆ":{"ha":694,"x_min":35,"x_max":625,"o":"m 35 503 l 35 671 q 49 689 35 688 q 69 679 57 689 l 184 597 q 268 670 209 634 q 411 706 326 706 q 565 648 505 706 q 625 509 625 589 l 625 -46 q 226 -289 625 -289 q 201 -282 207 -289 q 192 -255 194 -274 l 179 -122 q 214 -89 179 -96 q 226 -87 215 -89 q 244 -84 237 -86 q 262 -78 250 -82 q 281 -69 274 -74 q 296 -56 288 -64 q 308 -37 304 -49 q 313 -12 313 -25 l 313 278 q 324 363 313 313 q 336 440 336 414 q 289 498 336 498 q 200 424 248 498 q 196 417 199 422 q 192 409 193 412 q 185 402 190 405 q 176 399 181 399 l 150 411 l 52 475 q 35 503 35 485 z "},"็":{"ha":0,"x_min":-648,"x_max":-110,"o":"m -595 827 q -622 853 -595 827 q -648 955 -648 878 q -595 1083 -648 1031 q -446 1134 -543 1134 l -150 1134 q -126 1124 -137 1134 q -116 1100 -116 1113 l -116 1036 q -126 1012 -116 1022 q -150 1001 -137 1001 l -399 1001 q -441 989 -425 1001 q -457 955 -457 977 q -441 921 -457 933 q -399 909 -425 909 q -348 932 -363 909 q -324 949 -338 949 l -194 949 q -157 914 -172 949 l -117 822 q -110 804 -110 809 q -137 787 -110 787 l -255 787 q -292 822 -277 787 l -304 859 q -446 775 -344 775 q -595 827 -543 775 z "},"่":{"ha":0,"x_min":-324,"x_max":-116,"o":"m -324 1146 l -324 1319 q -314 1344 -324 1333 q -289 1354 -303 1354 l -150 1354 q -126 1344 -137 1354 q -116 1319 -116 1333 l -116 1146 q -126 1122 -116 1132 q -150 1111 -137 1111 l -289 1111 q -314 1122 -303 1111 q -324 1146 -324 1132 z "},"้":{"ha":0,"x_min":-451,"x_max":-35,"o":"m -451 1157 q -428 1204 -451 1184 l -370 1250 l -417 1250 q -433 1257 -426 1250 q -440 1273 -440 1264 l -440 1331 q -433 1347 -440 1340 q -417 1354 -426 1354 l -208 1354 q -174 1342 -186 1354 q -162 1314 -162 1330 q -179 1279 -162 1293 l -226 1238 l -69 1238 q -45 1228 -56 1238 q -35 1204 -35 1218 l -35 1146 q -45 1122 -35 1132 q -69 1111 -56 1111 l -405 1111 q -439 1125 -426 1111 q -451 1157 -451 1139 z "},"๊":{"ha":0,"x_min":-521,"x_max":0,"o":"m -521 1192 q -482 1318 -521 1270 q -382 1366 -443 1366 q -266 1282 -321 1366 l -266 1319 q -256 1344 -266 1333 q -231 1354 -245 1354 l -127 1354 q -103 1344 -113 1354 q -93 1319 -93 1333 l -93 1215 l -23 1215 q -7 1208 -14 1215 q 0 1192 0 1201 l 0 1134 q -7 1118 0 1125 q -23 1111 -14 1111 l -231 1111 q -256 1122 -245 1111 q -266 1146 -266 1132 l -266 1188 q -312 1238 -295 1238 q -334 1219 -328 1238 q -341 1181 -341 1200 q -337 1146 -341 1159 q -332 1128 -332 1134 q -360 1111 -332 1111 l -480 1111 q -505 1122 -494 1111 q -517 1146 -515 1132 q -521 1192 -521 1167 z "},"๋":{"ha":0,"x_min":-405,"x_max":-35,"o":"m -405 1204 l -405 1262 q -398 1278 -405 1271 q -382 1285 -391 1285 l -312 1285 l -312 1319 q -302 1344 -312 1333 q -278 1354 -292 1354 l -162 1354 q -138 1344 -148 1354 q -127 1319 -127 1333 l -127 1285 l -58 1285 q -42 1278 -49 1285 q -35 1262 -35 1271 l -35 1204 q -42 1188 -35 1194 q -58 1181 -49 1181 l -127 1181 l -127 1146 q -138 1122 -127 1132 q -162 1111 -148 1111 l -278 1111 q -302 1122 -292 1111 q -312 1146 -312 1132 l -312 1181 l -382 1181 q -398 1188 -391 1181 q -405 1204 -405 1194 z "},"์":{"ha":0,"x_min":-417,"x_max":-69,"o":"m -417 1192 q -301 1285 -417 1285 l -104 1285 q -80 1274 -90 1285 q -69 1250 -69 1264 l -69 1181 q -80 1156 -69 1167 q -104 1146 -90 1146 l -226 1146 l -208 1111 q -200 1094 -200 1098 q -228 1076 -200 1076 l -348 1076 q -391 1111 -372 1076 q -417 1192 -417 1157 z "},"ํ":{"ha":0,"x_min":-451,"x_max":-46,"o":"m -398 818 q -425 840 -398 818 q -451 932 -451 861 q -398 1045 -451 1002 q -249 1088 -345 1088 q -100 1045 -153 1088 q -46 932 -46 1002 q -100 818 -46 861 q -249 775 -153 775 q -398 818 -345 775 m -282 970 q -288 964 -282 970 q -295 932 -295 957 q -282 893 -295 906 q -249 880 -269 880 q -216 893 -229 880 q -203 932 -203 906 q -216 970 -203 957 q -249 984 -229 984 q -282 970 -269 984 z "},"๎":{"ha":0,"x_min":-521,"x_max":-179,"o":"m -521 897 q -455 1000 -521 970 q -498 1082 -498 1030 q -451 1179 -498 1144 q -324 1215 -404 1215 q -185 1160 -236 1215 q -179 1146 -179 1152 q -185 1131 -179 1137 l -214 1091 q -226 1082 -221 1082 q -240 1093 -229 1082 q -291 1111 -263 1111 q -332 1099 -317 1111 q -347 1071 -347 1087 q -328 1041 -347 1052 q -280 1030 -308 1030 q -269 1017 -266 1030 l -277 971 q -295 961 -278 961 q -346 948 -322 961 q -370 909 -370 935 q -312 862 -370 862 q -278 866 -288 862 q -260 870 -266 870 q -250 858 -253 870 l -237 808 q -235 793 -235 801 q -251 779 -235 782 q -359 764 -303 764 q -473 799 -426 764 q -521 897 -521 834 z "},"๏":{"ha":880,"x_min":69,"x_max":810,"o":"m 174 84 q 122 137 174 84 q 69 347 69 191 q 174 611 69 503 q 440 718 278 718 q 706 611 602 718 q 810 347 810 503 q 706 84 810 191 q 440 -23 602 -23 q 174 84 278 -23 m 248 545 q 211 505 248 545 q 174 347 174 465 q 248 149 174 229 q 440 69 323 69 q 631 149 557 69 q 706 347 706 229 q 631 545 706 465 q 440 625 557 625 q 248 545 323 625 m 317 225 q 292 250 317 225 q 266 347 266 275 q 317 470 266 419 q 440 521 368 521 q 563 470 512 521 q 613 347 613 419 q 563 225 613 275 q 440 174 512 174 q 317 225 368 174 z "},"๐":{"ha":903,"x_min":35,"x_max":868,"o":"m 150 83 q 92 137 150 83 q 35 347 35 190 q 150 611 35 505 q 451 718 265 718 q 753 611 638 718 q 868 347 868 505 q 753 83 868 190 q 451 -23 638 -23 q 150 83 265 -23 m 366 439 q 351 422 366 439 q 336 347 336 404 q 366 255 336 291 q 451 220 396 220 q 537 255 507 220 q 567 347 567 291 q 537 439 567 404 q 451 475 507 475 q 366 439 396 475 z "},"๑":{"ha":903,"x_min":35,"x_max":868,"o":"m 35 347 q 150 611 35 505 q 451 718 265 718 q 753 611 638 718 q 868 347 868 505 q 796 91 868 192 q 596 -82 723 -10 q 568 -93 578 -93 q 532 -73 549 -93 l 446 43 q 434 69 434 59 q 454 105 434 91 q 536 198 506 145 q 567 347 567 252 q 537 439 567 404 q 451 475 507 475 q 366 444 397 475 q 336 370 336 414 q 351 328 336 343 q 394 313 367 313 q 411 315 400 313 q 426 318 421 318 q 446 289 442 318 l 459 175 q 432 134 459 147 q 289 104 372 104 q 108 166 181 104 q 35 347 35 227 z "},"๒":{"ha":1007,"x_min":69,"x_max":961,"o":"m 69 46 l 69 822 q 83 854 69 840 q 116 868 97 868 l 324 868 q 356 854 343 868 q 370 822 370 840 l 370 208 l 683 208 l 683 428 q 637 498 683 498 q 546 428 591 498 q 523 411 535 411 l 500 422 l 432 475 q 414 503 414 485 l 414 670 q 429 689 414 688 q 449 676 434 689 l 530 602 q 752 706 606 706 q 906 644 851 706 q 961 486 961 581 l 961 46 q 947 14 961 28 q 914 0 933 0 l 116 0 q 83 14 97 0 q 69 46 69 28 z "},"๓":{"ha":972,"x_min":35,"x_max":914,"o":"m 35 347 q 115 602 35 499 q 324 706 194 706 q 376 694 353 706 q 405 671 398 683 l 413 660 l 498 523 l 498 521 l 582 648 q 648 694 611 694 l 868 694 q 900 681 887 694 q 914 648 914 667 l 914 46 q 900 14 914 28 q 868 0 887 0 l 660 0 q 627 14 641 0 q 613 46 613 28 l 613 440 l 573 370 q 546 334 557 344 q 521 324 535 324 l 498 324 l 471 324 q 446 334 457 324 q 419 370 435 344 l 374 440 q 336 324 336 404 q 364 245 336 281 q 428 208 392 208 q 470 185 464 208 l 500 64 q 503 44 503 51 q 486 12 503 21 q 359 -12 449 -12 q 122 91 209 -12 q 35 347 35 193 z "},"๔":{"ha":880,"x_min":35,"x_max":862,"o":"m 35 347 q 139 612 35 507 q 428 718 244 718 q 597 822 579 718 q 613 855 601 841 q 644 868 625 868 l 816 868 q 849 854 836 868 q 862 822 862 840 q 751 597 862 684 q 475 509 640 509 q 370 465 404 509 q 336 347 336 421 q 451 208 336 208 l 486 208 q 521 313 486 269 q 579 347 549 347 l 723 347 q 747 332 747 347 q 735 313 747 328 q 694 208 694 255 l 752 208 q 785 194 771 208 q 799 162 799 181 l 799 46 q 785 14 799 28 q 752 0 771 0 l 451 0 q 148 96 262 0 q 35 347 35 192 z "},"๕":{"ha":880,"x_min":35,"x_max":862,"o":"m 35 347 q 91 538 35 461 q 250 649 148 616 q 231 723 231 683 q 280 835 231 791 q 405 880 329 880 q 530 835 481 880 q 579 723 579 791 l 579 709 q 634 822 625 745 q 649 855 637 841 q 681 868 662 868 l 816 868 q 849 854 836 868 q 862 822 862 840 q 745 595 846 682 q 475 509 645 509 q 370 465 404 509 q 336 347 336 421 q 451 208 336 208 l 486 208 q 521 313 486 269 q 579 347 549 347 l 723 347 q 747 332 747 347 q 735 313 747 328 q 694 208 694 255 l 752 208 q 785 194 771 208 q 799 162 799 181 l 799 46 q 785 14 799 28 q 752 0 771 0 l 451 0 q 148 96 262 0 q 35 347 35 192 m 368 760 q 361 753 368 760 q 353 723 353 745 q 368 686 353 701 q 405 671 383 671 q 442 686 427 671 q 457 723 457 701 q 442 760 457 745 q 405 775 427 775 q 368 760 383 775 z "},"๖":{"ha":880,"x_min":17,"x_max":845,"o":"m 17 822 q 31 854 17 840 q 64 868 44 868 l 235 868 q 266 855 253 868 q 281 822 278 841 q 328 743 291 769 q 451 718 365 718 q 740 612 635 718 q 845 347 845 507 q 730 83 845 190 q 428 -23 615 -23 q 155 42 263 -23 q 46 208 46 108 q 81 310 46 272 q 185 347 116 347 l 313 347 q 351 313 351 347 q 349 298 351 310 q 347 282 347 286 q 368 213 347 241 q 428 185 389 185 q 514 229 484 185 q 544 347 544 273 q 510 465 544 421 q 405 509 476 509 q 17 822 17 509 z "},"๗":{"ha":1279,"x_min":35,"x_max":1227,"o":"m 35 347 q 115 602 35 499 q 324 706 194 706 q 376 694 353 706 q 405 671 398 683 l 413 660 l 498 523 l 498 521 l 582 648 q 648 694 611 694 l 833 694 q 866 681 852 694 q 880 648 880 667 l 880 212 q 961 347 961 229 l 961 648 q 975 681 961 667 q 1007 694 988 694 l 1181 694 q 1213 681 1199 694 q 1227 648 1227 667 l 1227 347 q 1129 94 1227 189 q 845 0 1031 0 l 660 0 q 627 14 641 0 q 613 46 613 28 l 613 440 l 573 370 q 546 334 557 344 q 521 324 535 324 l 498 324 l 471 324 q 446 334 457 324 q 419 370 435 344 l 374 440 q 336 324 336 404 q 364 245 336 281 q 428 208 392 208 q 470 185 464 208 l 500 64 q 503 44 503 51 q 486 12 503 21 q 359 -12 449 -12 q 122 91 209 -12 q 35 347 35 193 z "},"๘":{"ha":949,"x_min":35,"x_max":926,"o":"m 35 347 q 139 612 35 507 q 428 718 244 718 q 582 742 542 718 q 631 822 622 766 q 646 855 634 841 q 677 868 659 868 l 874 868 q 907 854 894 868 q 920 822 920 840 q 814 586 920 662 q 475 509 708 509 q 357 464 402 509 q 313 347 313 418 q 362 208 313 248 l 447 324 q 480 347 459 347 l 498 347 l 515 347 q 533 341 524 347 q 545 330 542 336 l 549 324 l 628 214 q 648 282 648 243 q 646 298 648 286 q 645 313 645 310 q 683 347 645 347 l 787 347 q 891 310 856 347 q 926 208 926 272 q 832 43 926 110 q 637 -23 737 -23 q 618 -17 627 -23 q 604 -6 609 -12 l 600 0 l 498 139 l 396 0 q 359 -23 380 -23 q 255 2 310 -23 q 150 73 200 28 q 68 192 101 119 q 35 347 35 264 z "},"๙":{"ha":1019,"x_min":35,"x_max":1007,"o":"m 35 324 q 141 598 35 490 q 428 706 247 706 q 511 703 473 706 q 564 697 549 700 l 579 694 q 613 678 600 694 q 631 645 627 661 l 660 558 q 741 694 741 589 l 741 822 q 755 854 741 840 q 787 868 769 868 l 961 868 q 993 854 979 868 q 1007 822 1007 840 l 1007 694 q 935 470 1007 564 q 729 347 862 377 l 828 52 q 833 29 833 37 q 787 0 833 0 l 631 0 q 573 46 584 0 l 440 498 q 366 451 397 498 q 336 336 336 404 q 355 233 336 269 q 405 197 374 197 q 447 174 441 197 l 477 64 q 480 44 480 51 q 463 12 480 21 q 336 -12 426 -12 q 121 84 207 -12 q 35 324 35 181 z "},"๚":{"ha":1042,"x_min":23,"x_max":972,"o":"m 23 567 l 23 648 q 37 681 23 667 q 69 694 51 694 l 220 694 q 252 681 238 694 q 266 648 266 667 l 266 625 q 336 532 266 532 q 396 556 369 532 q 440 619 424 580 l 440 660 q 450 684 440 674 q 475 694 461 694 l 625 694 q 649 684 639 694 q 660 660 660 674 l 660 35 q 649 10 660 21 q 625 0 639 0 l 451 0 q 427 10 438 0 q 417 35 417 21 l 417 404 q 243 336 351 336 q 83 403 141 336 q 23 567 24 471 m 729 35 l 729 660 q 740 684 729 674 q 764 694 750 694 l 938 694 q 962 684 951 694 q 972 660 972 674 l 972 35 q 962 10 972 21 q 938 0 951 0 l 764 0 q 740 10 750 0 q 729 35 729 21 z "},"๛":{"ha":1285,"x_min":35,"x_max":1250,"o":"m 139 84 q 87 137 139 84 q 35 347 35 191 q 139 611 35 503 q 405 718 243 718 q 642 631 543 718 q 650 613 650 623 q 646 596 650 602 l 616 561 q 602 556 611 556 q 584 561 593 556 q 405 625 509 625 q 214 545 288 625 q 139 347 139 465 q 214 149 139 229 q 405 69 288 69 q 694 347 646 69 q 718 602 715 464 q 725 618 718 611 q 741 625 731 625 l 793 625 q 817 602 809 625 l 917 251 l 994 498 q 1019 521 1002 521 l 1067 521 q 1091 498 1083 521 l 1132 394 l 1227 394 q 1243 387 1236 394 q 1250 370 1250 380 l 1250 324 q 1243 308 1250 315 q 1227 301 1236 301 l 1103 301 q 1079 324 1087 301 l 1047 404 l 968 127 q 943 104 959 104 l 885 104 q 861 127 869 104 l 791 373 q 787 347 789 363 q 667 75 762 172 q 405 -23 573 -23 q 139 84 243 -23 m 282 225 q 257 250 282 225 q 231 347 231 275 q 282 470 231 419 q 405 521 333 521 q 528 470 477 521 q 579 347 579 419 q 528 225 579 275 q 405 174 477 174 q 282 225 333 174 z "},"​":{"ha":0,"x_min":0,"x_max":0,"o":""},"‌":{"ha":0,"x_min":0,"x_max":0,"o":""},"‍":{"ha":0,"x_min":0,"x_max":0,"o":""},"–":{"ha":891,"x_min":58,"x_max":845,"o":"m 58 347 l 58 486 q 68 510 58 500 q 93 521 79 521 l 810 521 q 834 510 824 521 q 845 486 845 500 l 845 347 q 834 323 845 333 q 810 313 824 313 l 93 313 q 68 323 79 313 q 58 347 58 333 z "},"—":{"ha":1273,"x_min":58,"x_max":1227,"o":"m 58 347 l 58 486 q 68 510 58 500 q 93 521 79 521 l 1192 521 q 1216 510 1206 521 q 1227 486 1227 500 l 1227 347 q 1216 323 1227 333 q 1192 313 1206 313 l 93 313 q 68 323 79 313 q 58 347 58 333 z "},"‘":{"ha":417,"x_min":69,"x_max":366,"o":"m 366 909 q 346 889 366 894 q 243 764 251 870 l 313 764 q 337 753 326 764 q 347 729 347 743 l 347 567 q 337 543 347 553 q 313 532 326 532 l 104 532 q 80 543 90 532 q 69 567 69 553 l 69 729 q 147 925 69 854 q 324 995 225 995 q 353 972 348 995 l 365 916 q 366 909 366 912 z "},"’":{"ha":417,"x_min":51,"x_max":347,"o":"m 51 596 q 71 616 51 611 q 174 741 166 634 l 104 741 q 80 751 90 741 q 69 775 69 762 l 69 938 q 80 962 69 951 q 104 972 90 972 l 313 972 q 337 962 326 972 q 347 938 347 951 l 347 775 q 270 580 347 650 q 93 509 192 509 q 64 532 68 509 l 52 589 q 51 596 51 593 z "},"“":{"ha":764,"x_min":69,"x_max":713,"o":"m 713 909 q 693 889 713 894 q 590 764 598 870 l 660 764 q 684 753 674 764 q 694 729 694 743 l 694 567 q 684 543 694 553 q 660 532 674 532 l 451 532 q 427 543 438 532 q 417 567 417 553 l 417 729 q 494 925 417 854 q 671 995 572 995 q 700 972 696 995 l 712 916 q 713 909 713 912 m 366 909 q 346 889 366 894 q 243 764 251 870 l 313 764 q 337 753 326 764 q 347 729 347 743 l 347 567 q 337 543 347 553 q 313 532 326 532 l 104 532 q 80 543 90 532 q 69 567 69 553 l 69 729 q 147 925 69 854 q 324 995 225 995 q 353 972 348 995 l 365 916 q 366 909 366 912 z "},"”":{"ha":764,"x_min":51,"x_max":694,"o":"m 398 596 q 418 616 398 611 q 521 741 513 634 l 451 741 q 427 751 438 741 q 417 775 417 762 l 417 938 q 427 962 417 951 q 451 972 438 972 l 660 972 q 684 962 674 972 q 694 938 694 951 l 694 775 q 617 580 694 650 q 440 509 539 509 q 411 532 416 509 l 399 589 q 398 596 398 593 m 51 596 q 71 616 51 611 q 174 741 166 634 l 104 741 q 80 751 90 741 q 69 775 69 762 l 69 938 q 80 962 69 951 q 104 972 90 972 l 313 972 q 337 962 326 972 q 347 938 347 951 l 347 775 q 270 580 347 650 q 93 509 192 509 q 64 532 68 509 l 52 589 q 51 596 51 593 z "},"•":{"ha":463,"x_min":58,"x_max":405,"o":"m 109 294 q 83 319 109 294 q 58 417 58 345 q 109 539 58 488 q 231 590 160 590 q 354 539 303 590 q 405 417 405 488 q 354 294 405 345 q 231 243 303 243 q 109 294 160 243 z "},"…":{"ha":1181,"x_min":69,"x_max":1111,"o":"m 833 35 l 833 197 q 844 221 833 211 q 868 231 854 231 l 1076 231 q 1101 221 1090 231 q 1111 197 1111 211 l 1111 35 q 1101 10 1111 21 q 1076 0 1090 0 l 868 0 q 844 10 854 0 q 833 35 833 21 m 451 35 l 451 197 q 462 221 451 211 q 486 231 472 231 l 694 231 q 719 221 708 231 q 729 197 729 211 l 729 35 q 719 10 729 21 q 694 0 708 0 l 486 0 q 462 10 472 0 q 451 35 451 21 m 69 35 l 69 197 q 80 221 69 211 q 104 231 90 231 l 313 231 q 337 221 326 231 q 347 197 347 211 l 347 35 q 337 10 347 21 q 313 0 326 0 l 104 0 q 80 10 90 0 q 69 35 69 21 z "},"€":{"ha":938,"x_min":23,"x_max":918,"o":"m 23 353 l 23 422 q 34 447 23 436 q 58 457 44 457 l 93 457 l 93 486 l 93 515 l 58 515 q 34 525 44 515 q 23 550 23 536 l 23 619 q 34 644 23 633 q 58 654 44 654 l 113 654 q 275 903 155 810 q 590 995 395 995 q 889 912 758 995 q 918 877 918 892 q 909 848 918 865 l 825 698 q 795 671 811 671 q 770 683 793 671 q 762 687 769 683 q 749 694 756 691 q 731 701 743 697 q 706 709 719 706 q 675 715 693 713 q 637 718 656 718 q 493 654 538 718 l 660 654 q 684 644 674 654 q 694 619 694 633 l 694 550 q 684 525 694 536 q 660 515 674 515 l 453 515 q 451 486 451 506 q 453 457 451 466 l 660 457 q 684 447 674 457 q 694 422 694 436 l 694 353 q 684 329 694 339 q 660 318 674 318 l 493 318 q 637 255 538 255 q 675 257 656 255 q 706 263 693 259 q 731 271 719 266 q 749 278 743 275 q 762 285 756 281 q 770 289 769 289 q 795 301 793 301 q 825 274 811 301 l 909 124 q 918 95 918 108 q 889 60 918 80 q 590 -23 758 -23 q 275 69 395 -23 q 113 318 155 162 l 58 318 q 34 329 44 318 q 23 353 23 339 z "},"◌":{"ha":833,"x_min":46,"x_max":787,"o":"m 58 319 q 52 325 58 319 q 46 347 46 331 q 58 376 46 363 q 87 388 71 388 q 115 376 103 388 q 127 347 127 363 q 115 319 127 331 q 87 307 103 307 q 58 319 71 307 m 84 193 q 78 199 84 193 q 72 221 72 205 q 84 249 72 237 q 112 262 96 262 q 141 249 128 262 q 153 221 153 237 q 141 193 153 205 q 112 181 128 181 q 84 193 96 181 m 84 445 q 78 451 84 445 q 72 473 72 457 q 84 502 72 490 q 112 514 96 514 q 141 502 128 514 q 153 473 153 490 q 141 445 153 457 q 112 433 128 433 q 84 445 96 433 m 155 85 q 148 91 155 85 q 142 113 142 97 q 155 142 142 130 q 183 154 167 154 q 211 142 199 154 q 223 113 223 130 q 211 85 223 97 q 183 73 199 73 q 155 85 167 73 m 155 553 q 148 559 155 553 q 142 581 142 565 q 155 609 142 597 q 183 622 167 622 q 211 609 199 622 q 223 581 223 597 q 211 553 223 565 q 183 541 199 541 q 155 553 167 541 m 262 14 q 256 21 262 14 q 250 43 250 27 q 262 71 250 59 q 291 83 274 83 q 319 71 307 83 q 331 43 331 59 q 319 14 331 27 q 291 2 307 2 q 262 14 274 2 m 262 623 q 256 629 262 623 q 250 652 250 635 q 262 680 250 668 q 291 692 274 692 q 319 680 307 692 q 331 652 331 668 q 319 623 331 635 q 291 611 307 611 q 262 623 274 611 m 388 -11 q 382 -5 388 -11 q 376 17 376 1 q 388 46 376 34 q 417 58 400 58 q 445 46 433 58 q 457 17 457 34 q 445 -11 457 1 q 417 -23 433 -23 q 388 -11 400 -23 m 388 649 q 382 655 388 649 q 376 677 376 661 q 388 705 376 693 q 417 718 400 718 q 445 705 433 718 q 457 677 457 693 q 445 649 457 661 q 417 637 433 637 q 388 649 400 637 m 514 14 q 508 21 514 14 q 502 43 502 27 q 514 71 502 59 q 543 83 527 83 q 571 71 559 83 q 583 43 583 59 q 571 14 583 27 q 543 2 559 2 q 514 14 527 2 m 514 623 q 508 629 514 623 q 502 652 502 635 q 514 680 502 668 q 543 692 527 692 q 571 680 559 692 q 583 652 583 668 q 571 623 583 635 q 543 611 559 611 q 514 623 527 611 m 622 85 q 616 91 622 85 q 610 113 610 97 q 622 142 610 130 q 650 154 634 154 q 679 142 667 154 q 691 113 691 130 q 679 85 691 97 q 650 73 667 73 q 622 85 634 73 m 622 553 q 616 559 622 553 q 610 581 610 565 q 622 609 610 597 q 650 622 634 622 q 679 609 667 622 q 691 581 691 597 q 679 553 691 565 q 650 541 667 541 q 622 553 634 541 m 693 193 q 687 199 693 193 q 681 221 681 205 q 693 249 681 237 q 721 262 705 262 q 749 249 737 262 q 762 221 762 237 q 749 193 762 205 q 721 181 737 181 q 693 193 705 181 m 693 445 q 687 451 693 445 q 681 473 681 457 q 693 502 681 490 q 721 514 705 514 q 749 502 737 514 q 762 473 762 490 q 749 445 762 457 q 721 433 737 433 q 693 445 705 433 m 718 319 q 712 325 718 319 q 706 347 706 331 q 718 376 706 363 q 747 388 730 388 q 775 376 763 388 q 787 347 787 363 q 775 319 787 331 q 747 307 763 307 q 718 319 730 307 z "},"":{"ha":891,"x_min":58,"x_max":845,"o":"m 58 255 q 81 373 58 315 q 127 458 104 431 l 150 486 l 93 486 q 68 497 79 486 q 58 521 58 507 l 58 660 q 68 683 58 674 q 93 694 79 693 l 301 694 q 440 556 440 694 q 405 411 440 509 q 370 255 370 313 q 389 203 370 220 q 440 185 409 185 q 509 255 509 185 l 509 428 q 486 498 509 491 q 463 521 463 505 l 463 590 q 486 619 463 600 q 634 712 539 663 q 810 762 728 762 q 834 751 824 762 q 845 727 845 741 l 845 602 q 834 578 845 588 q 810 567 824 567 q 666 541 725 567 q 775 481 729 528 q 822 382 822 435 l 822 255 q 721 46 822 115 q 440 -23 620 -23 q 160 47 262 -23 q 58 255 58 118 z "},"":{"ha":903,"x_min":23,"x_max":856,"o":"m 23 532 l 23 683 q 38 703 23 703 q 58 694 46 703 l 150 637 q 313 706 220 706 q 431 663 387 706 q 475 556 475 620 q 428 411 475 509 q 382 255 382 313 q 451 185 382 185 q 521 255 521 185 l 521 428 q 498 498 521 491 q 480 521 480 502 l 480 590 q 498 619 480 604 q 645 712 551 663 q 822 762 740 762 q 846 751 836 762 q 856 727 856 741 l 856 602 q 846 578 856 588 q 822 567 836 567 q 677 541 736 567 q 787 481 741 528 q 833 382 833 435 l 833 255 q 733 46 833 115 q 451 -23 632 -23 q 170 46 271 -23 q 69 255 69 115 q 93 337 69 299 q 145 398 117 376 q 196 446 172 420 q 220 492 220 471 q 197 521 220 521 q 139 480 169 521 q 116 463 127 463 l 93 475 l 41 503 q 23 532 23 514 z "},"":{"ha":1331,"x_min":23,"x_max":1273,"o":"m 23 584 q 46 619 23 605 q 67 630 53 623 q 122 653 80 637 q 208 683 164 670 q 315 707 251 697 q 440 718 378 718 q 737 644 630 718 q 845 428 845 569 l 845 255 q 903 185 845 185 q 961 255 961 185 l 961 648 q 975 681 961 667 q 1007 694 988 694 l 1227 694 q 1259 681 1245 694 q 1273 648 1273 667 l 1273 243 q 1183 50 1273 124 q 903 -23 1093 -23 q 623 50 713 -23 q 532 243 532 124 l 532 428 q 511 490 532 471 q 440 509 490 509 q 368 505 406 509 q 405 417 405 472 l 405 174 l 440 174 q 464 163 454 174 q 475 139 475 153 l 475 35 q 464 10 475 21 q 440 0 454 0 l 231 0 q 135 30 167 0 q 104 104 104 59 l 104 428 q 90 459 104 459 q 75 457 79 457 q 52 480 60 457 l 29 556 q 23 584 23 575 z "},"":{"ha":856,"x_min":35,"x_max":833,"o":"m 35 619 q 58 654 35 644 q 394 718 211 718 q 541 689 476 718 q 799 785 688 785 q 823 774 813 785 q 833 750 833 764 l 833 625 q 823 601 833 611 q 799 590 813 590 q 693 578 737 590 q 787 370 787 484 q 686 102 787 216 q 428 -12 584 -12 q 252 -3 352 -12 q 200 46 219 -1 l 127 220 l 93 220 q 68 230 79 220 q 58 255 58 241 l 58 359 q 68 383 58 373 q 93 394 79 394 l 278 394 q 359 336 338 394 l 409 194 q 475 359 475 230 q 433 470 475 432 q 313 509 391 509 q 162 486 235 509 q 145 480 157 485 q 123 472 133 475 q 105 469 112 469 q 76 503 90 469 l 41 590 q 35 619 35 604 z "},"":{"ha":926,"x_min":46,"x_max":903,"o":"m 46 46 l 46 428 q 154 644 46 569 q 451 718 262 718 q 611 690 536 718 q 868 785 758 785 q 892 774 882 785 q 903 750 903 764 l 903 625 q 892 601 903 611 q 868 590 882 590 q 784 582 816 590 q 836 515 815 556 q 856 428 856 475 l 856 46 q 843 14 856 28 q 810 0 829 0 l 590 0 q 558 14 572 0 q 544 46 544 28 l 544 417 q 518 477 544 456 q 451 498 492 498 q 385 477 411 498 q 359 417 359 456 l 359 336 q 440 394 397 394 q 469 388 457 394 q 486 359 486 380 l 486 203 q 481 192 486 196 q 469 189 476 188 q 440 191 455 191 q 359 145 388 191 l 359 46 q 345 14 359 28 q 313 0 331 0 l 93 0 q 60 14 74 0 q 46 46 46 28 z "},"":{"ha":880,"x_min":35,"x_max":856,"o":"m 101 50 q 68 80 101 50 q 35 208 35 111 q 101 367 35 306 q 289 428 167 428 q 498 360 421 428 l 498 417 q 347 509 498 509 q 185 480 260 509 q 128 463 140 463 q 100 498 113 463 l 64 590 q 58 619 58 604 q 81 654 58 644 q 428 718 234 718 q 571 693 506 718 q 822 785 716 785 q 846 774 836 785 q 856 750 856 764 l 856 625 q 846 601 856 611 q 822 590 836 590 q 734 582 777 590 q 810 428 810 515 l 810 46 q 796 14 810 28 q 764 0 782 0 l 544 0 q 512 14 525 0 q 498 46 498 28 l 498 241 q 417 266 465 266 q 367 252 387 266 q 347 208 347 237 q 365 164 347 178 q 405 150 382 150 q 427 153 416 150 q 440 156 438 156 q 451 139 451 156 l 451 46 q 417 12 451 25 q 289 -12 355 -12 q 101 50 167 -12 z "},"":{"ha":1204,"x_min":17,"x_max":1181,"o":"m 17 671 q 69 694 17 694 l 301 694 q 353 648 345 694 l 405 313 l 411 266 l 422 266 l 428 313 l 509 648 q 523 683 514 672 q 556 694 532 694 l 608 694 l 660 694 q 692 683 683 694 q 706 648 701 672 l 787 313 l 793 266 l 804 266 l 810 313 l 834 463 q 839 515 839 497 q 819 567 839 552 q 810 584 810 572 l 810 671 q 833 706 810 694 q 975 755 875 725 q 1146 785 1075 785 q 1170 774 1160 785 q 1181 750 1181 764 l 1181 625 q 1170 601 1181 611 q 1146 590 1160 590 l 984 590 l 984 584 q 1087 553 1045 584 q 1128 463 1128 521 q 1123 417 1128 446 q 1111 368 1117 388 l 1105 347 l 1019 46 q 966 0 1006 0 l 723 0 q 671 46 686 0 l 608 289 l 544 46 q 492 0 529 0 l 249 0 q 197 46 209 0 l 23 648 q 17 671 17 662 z "},"":{"ha":868,"x_min":35,"x_max":845,"o":"m 35 301 q 53 367 35 341 q 104 394 72 394 l 336 394 q 360 383 350 394 q 370 359 370 373 l 370 301 q 360 277 370 287 q 336 266 350 266 l 318 266 q 343 206 318 227 q 405 185 368 185 q 498 347 498 185 q 324 509 498 509 q 185 486 258 509 q 168 480 181 485 q 146 472 156 475 q 128 469 135 469 q 100 503 113 469 l 64 590 q 58 619 58 604 q 81 654 58 644 q 417 718 234 718 q 558 693 494 718 q 810 785 705 785 q 834 774 824 785 q 845 750 845 764 l 845 625 q 834 601 845 611 q 810 590 824 590 q 720 581 760 590 q 810 347 810 508 q 698 83 810 190 q 405 -23 587 -23 q 137 60 240 -23 q 35 301 35 142 z "},"":{"ha":0,"x_min":-926,"x_max":-440,"o":"m -926 903 q -920 950 -926 924 q -907 991 -914 976 l -902 1007 q -855 1042 -889 1042 l -700 1042 q -679 1032 -686 1042 q -677 1007 -672 1022 l -689 972 l -475 972 q -450 962 -461 972 q -440 938 -440 951 l -440 833 q -450 809 -440 819 q -475 799 -461 799 l -799 799 q -890 826 -854 799 q -926 903 -926 854 z "},"":{"ha":625,"x_min":-822,"x_max":567,"o":"m 6 613 q 35 648 6 631 q 67 664 46 655 q 153 690 87 674 q 289 706 220 706 q 499 639 432 706 q 567 440 567 573 l 567 46 q 553 14 567 28 q 521 0 539 0 l 289 0 q 257 14 271 0 q 243 46 243 28 l 243 417 q 230 462 243 449 q 185 475 216 475 q 104 457 145 475 q 69 446 79 446 q 46 469 54 446 l 12 584 q 6 613 6 604 m -769 818 q -795 840 -769 818 q -822 932 -822 861 q -769 1045 -822 1002 q -619 1088 -715 1088 q -470 1045 -523 1088 q -417 932 -417 1002 q -470 818 -417 861 q -619 775 -523 775 q -769 818 -715 775 m -652 970 q -659 964 -652 970 q -666 932 -666 957 q -652 893 -666 906 q -619 880 -639 880 q -586 893 -600 880 q -573 932 -573 906 q -586 970 -573 957 q -619 984 -600 984 q -652 970 -639 984 z "},"":{"ha":0,"x_min":-937,"x_max":-451,"o":"m -937 833 l -937 938 q -927 962 -937 951 q -903 972 -917 972 l -486 972 q -462 962 -472 972 q -451 938 -451 951 l -451 833 q -462 809 -451 819 q -486 799 -472 799 l -903 799 q -927 809 -917 799 q -937 833 -937 819 z "},"":{"ha":0,"x_min":-949,"x_max":-428,"o":"m -949 833 l -949 938 q -939 962 -949 951 q -914 972 -928 972 l -741 972 q -689 961 -712 972 q -657 938 -666 949 l -648 926 l -648 1030 q -638 1054 -648 1044 q -613 1065 -627 1065 l -463 1065 q -439 1054 -449 1065 q -428 1030 -428 1044 l -428 833 q -439 809 -428 819 q -463 799 -449 799 l -914 799 q -939 809 -928 799 q -949 833 -949 819 z "},"":{"ha":0,"x_min":-961,"x_max":-417,"o":"m -961 833 l -961 938 q -950 962 -961 951 q -926 972 -940 972 l -787 972 q -716 924 -749 972 q -718 938 -718 928 q -675 1038 -718 1000 q -567 1076 -633 1076 q -459 1038 -501 1076 q -417 938 -417 1000 q -459 837 -417 875 q -567 799 -501 799 l -926 799 q -950 809 -940 799 q -961 833 -961 819 m -567 984 q -587 984 -567 984 q -608 938 -608 984 q -567 891 -608 891 q -527 938 -527 891 q -567 984 -527 984 z "},"":{"ha":0,"x_min":-961,"x_max":-428,"o":"m -961 833 l -961 938 q -950 962 -961 951 q -926 972 -940 972 l -868 972 q -821 961 -841 972 q -794 938 -801 949 l -787 926 l -787 1042 q -780 1058 -787 1051 q -764 1065 -773 1065 l -660 1065 q -644 1058 -650 1065 q -637 1042 -637 1051 l -637 914 l -579 914 l -579 1042 q -572 1058 -579 1051 q -556 1065 -565 1065 l -451 1065 q -435 1058 -442 1065 q -428 1042 -428 1051 l -428 833 q -439 809 -428 819 q -463 799 -449 799 l -926 799 q -950 809 -940 799 q -961 833 -961 819 z "},"":{"ha":0,"x_min":-382,"x_max":-93,"o":"m -382 -347 q -372 -323 -382 -333 q -347 -312 -361 -312 l -162 -312 q -112 -332 -131 -312 q -93 -382 -93 -351 l -93 -532 q -103 -557 -93 -546 q -127 -567 -113 -567 l -289 -567 q -314 -557 -303 -567 q -324 -532 -324 -546 l -324 -451 l -347 -451 q -372 -441 -361 -451 q -382 -417 -382 -431 l -382 -347 z "},"":{"ha":0,"x_min":-637,"x_max":-81,"o":"m -637 -347 q -626 -323 -637 -333 q -602 -312 -616 -312 l -440 -312 q -389 -332 -409 -312 q -370 -382 -370 -351 l -370 -463 l -289 -463 l -289 -347 q -279 -323 -289 -333 q -255 -312 -269 -312 l -116 -312 q -91 -323 -102 -312 q -81 -347 -81 -333 l -81 -498 q -108 -548 -81 -529 q -185 -567 -134 -567 l -475 -567 q -552 -548 -525 -567 q -579 -498 -579 -529 l -579 -451 l -602 -451 q -626 -441 -616 -451 q -637 -417 -637 -431 l -637 -347 z "},"":{"ha":0,"x_min":-347,"x_max":-116,"o":"m -347 -347 q -337 -323 -347 -333 q -312 -312 -326 -312 l -150 -312 q -126 -323 -137 -312 q -116 -347 -116 -333 l -116 -463 q -126 -487 -116 -477 q -150 -498 -137 -498 l -312 -498 q -337 -487 -326 -498 q -347 -463 -347 -477 l -347 -347 z "},"":{"ha":0,"x_min":-949,"x_max":-411,"o":"m -896 827 q -923 853 -896 827 q -949 955 -949 878 q -896 1083 -949 1031 q -747 1134 -844 1134 l -451 1134 q -427 1124 -437 1134 q -417 1100 -417 1113 l -417 1036 q -427 1012 -417 1022 q -451 1001 -437 1001 l -700 1001 q -742 989 -726 1001 q -758 955 -758 977 q -742 921 -758 933 q -700 909 -726 909 q -649 932 -664 909 q -625 949 -639 949 l -495 949 q -458 914 -473 949 l -418 822 q -411 804 -411 809 q -437 787 -411 787 l -556 787 q -593 822 -578 787 l -605 859 q -747 775 -645 775 q -896 827 -844 775 z "},"":{"ha":0,"x_min":-336,"x_max":-104,"o":"m -336 833 l -336 1030 q -325 1054 -336 1044 q -301 1065 -315 1065 l -139 1065 q -115 1054 -125 1065 q -104 1030 -104 1044 l -104 833 q -115 809 -104 819 q -139 799 -125 799 l -301 799 q -325 809 -315 799 q -336 833 -336 819 z "},"":{"ha":0,"x_min":-532,"x_max":-81,"o":"m -532 845 q -503 891 -532 867 l -440 938 l -475 938 q -499 948 -488 938 q -509 972 -509 958 l -509 1030 q -499 1054 -509 1044 q -475 1065 -488 1065 l -266 1065 q -233 1050 -245 1065 q -220 1019 -220 1036 q -243 972 -220 991 l -284 938 l -116 938 q -91 927 -102 938 q -81 903 -81 917 l -81 833 q -91 809 -81 819 q -116 799 -102 799 l -486 799 q -520 813 -507 799 q -532 845 -532 826 z "},"":{"ha":0,"x_min":-648,"x_max":-81,"o":"m -648 903 q -604 1028 -648 979 q -492 1076 -560 1076 q -370 985 -424 1076 l -370 1030 q -360 1054 -370 1044 q -336 1065 -350 1065 l -208 1065 q -184 1054 -194 1065 q -174 1030 -174 1044 l -174 914 l -116 914 q -91 904 -102 914 q -81 880 -81 894 l -81 833 q -91 809 -81 819 q -116 799 -102 799 l -336 799 q -360 809 -350 799 q -370 833 -370 819 l -370 883 q -422 938 -399 938 q -451 880 -451 938 q -446 833 -451 848 q -441 816 -441 822 q -469 799 -441 799 l -602 799 q -627 811 -617 799 q -641 839 -638 823 q -648 903 -648 881 z "},"":{"ha":0,"x_min":-428,"x_max":-35,"o":"m -428 909 l -428 955 q -418 979 -428 969 q -394 990 -407 990 l -330 990 l -330 1030 q -319 1054 -330 1044 q -295 1065 -309 1065 l -168 1065 q -144 1054 -154 1065 q -133 1030 -133 1044 l -133 990 l -69 990 q -45 979 -56 990 q -35 955 -35 969 l -35 909 q -45 884 -35 895 q -69 874 -56 874 l -133 874 l -133 833 q -144 809 -133 819 q -168 799 -154 799 l -295 799 q -319 809 -309 799 q -330 833 -330 819 l -330 874 l -394 874 q -418 884 -407 874 q -428 909 -428 895 z "},"":{"ha":0,"x_min":-440,"x_max":-46,"o":"m -440 949 q -404 1025 -440 998 q -312 1053 -368 1053 l -81 1053 q -57 1043 -67 1053 q -46 1019 -46 1032 l -46 926 q -57 902 -46 912 q -81 891 -67 891 l -226 891 l -212 856 q -206 839 -206 844 q -234 822 -206 822 l -376 822 q -418 856 -398 822 q -440 949 -440 896 z "},"":{"ha":0,"x_min":-428,"x_max":-81,"o":"m -381 1102 q -405 1121 -381 1102 q -428 1198 -428 1140 q -381 1293 -428 1256 q -255 1331 -334 1331 q -128 1293 -175 1331 q -81 1198 -81 1256 q -128 1102 -81 1140 q -255 1065 -175 1065 q -381 1102 -334 1065 m -284 1231 q -290 1225 -284 1231 q -295 1198 -295 1219 q -284 1164 -295 1177 q -255 1152 -273 1152 q -225 1164 -236 1152 q -214 1198 -214 1177 q -225 1231 -214 1219 q -255 1244 -236 1244 q -284 1231 -273 1244 z "},"":{"ha":972,"x_min":0,"x_max":972,"o":"m 0 46 l 0 926 q 14 958 0 944 q 46 972 28 972 l 926 972 q 958 958 944 972 q 972 926 972 944 l 972 46 q 958 14 972 28 q 926 0 944 0 l 778 0 l 778 486 q 693 693 778 609 q 486 778 609 778 q 279 693 363 778 q 194 486 194 609 q 279 279 194 363 q 486 194 363 194 q 546 200 515 194 l 546 0 l 46 0 q 14 14 28 0 q 0 46 0 28 m 400 400 q 382 418 400 400 q 365 486 365 435 q 400 572 365 537 q 486 608 435 608 q 572 572 537 608 q 608 486 608 537 q 572 400 608 435 q 486 365 537 365 q 400 400 435 365 z "}}}
